<svg fill="none" xmlns="http://www.w3.org/2000/svg" viewBox="0 0 396 400"><g clip-path="url(#clip0)"><rect width="396" height="400" rx="24" fill="#fff"/><g clip-path="url(#clip1)"><path d="M219.421 156.453l-57.072-.548-17.295-.084-4.703.011-1.223.017c-.275.007-.417.014-.417.023 0 .008.142.017.417.027l1.223.029 4.702.059 17.295.093 57.074.037c22.276-.003 42.448.027 57.051.135 7.301.052 13.21.121 17.294.2 2.042.039 3.627.081 4.702.122 1.075.042 1.64.084 1.64.124-.001.04-.566.077-1.641.107-1.075.031-2.661.056-4.703.074-4.085.037-9.994.046-17.296.024-14.603-.042-34.774-.219-57.048-.45z" fill="#ECECEC"/><path d="M218.977 161.476l-56.292-9.403-17.073-2.765-4.647-.718-1.211-.172c-.274-.036-.414-.05-.416-.041-.001.008.137.039.407.092l1.204.219 4.635.79 17.071 2.778 56.376 8.888c22.005 3.451 41.928 6.609 56.337 8.981a1526.559 1526.559 0 0117.053 2.883c2.01.356 3.57.644 4.625.852 1.056.209 1.607.339 1.6.379-.006.04-.57-.011-1.637-.147a259.773 259.773 0 01-4.658-.655c-4.041-.597-9.88-1.505-17.089-2.66-14.42-2.307-34.318-5.614-56.285-9.301z" fill="#ECECEC"/><path d="M217.75 166.366l-54.106-18.141-16.424-5.416-4.476-1.438-1.169-.361c-.264-.078-.401-.114-.404-.105-.002.008.129.061.388.155l1.153.406 4.453 1.51 16.42 5.428 54.271 17.64c21.187 6.869 40.364 13.119 54.219 17.728 6.927 2.303 12.526 4.193 16.385 5.53 1.929.668 3.424 1.197 4.433 1.57 1.009.372 1.533.587 1.52.626-.013.039-.562-.1-1.594-.401a256.019 256.019 0 01-4.497-1.379c-3.896-1.224-9.52-3.038-16.457-5.313-13.876-4.546-33.004-10.942-54.115-18.039z" fill="#ECECEC"/><path d="M215.769 170.997l-50.575-26.413-15.366-7.929-4.194-2.125-1.097-.54c-.248-.119-.377-.176-.382-.168-.004.008.118.08.359.214l1.075.582 4.16 2.19 15.36 7.94 50.814 25.953c19.84 10.114 37.792 19.301 50.748 26.029a1527.352 1527.352 0 0115.31 8.034 265.15 265.15 0 014.132 2.245c.938.526 1.422.82 1.403.856-.019.036-.538-.188-1.51-.649-.972-.46-2.396-1.158-4.223-2.069a1524.084 1524.084 0 01-15.414-7.835c-12.986-6.67-30.869-15.991-50.6-26.315z" fill="#ECECEC"/><path d="M213.084 175.262l-45.819-33.983-13.935-10.23-3.81-2.754-.999-.704c-.226-.157-.345-.233-.35-.226-.005.007.103.097.32.267l.971.742 3.766 2.812 13.929 10.24 46.127 33.566c18.013 13.086 34.306 24.962 46.05 33.631 5.873 4.333 10.609 7.861 13.864 10.325a259.154 259.154 0 013.73 2.863c.844.666 1.275 1.032 1.251 1.065-.024.032-.502-.27-1.39-.877a249.996 249.996 0 01-3.847-2.703c-3.324-2.369-8.108-5.835-13.998-10.143-11.783-8.616-27.987-20.613-45.86-33.891z" fill="#ECECEC"/><path d="M209.768 179.058a908360.266 908360.266 0 00-39.969-40.686l-12.172-12.271-3.334-3.311-.877-.852c-.2-.19-.306-.284-.312-.278-.006.007.087.113.275.314l.844.884 3.283 3.363L169.67 138.5l40.337 40.321c15.756 15.726 30.001 29.988 40.252 40.375a1525.87 1525.87 0 0112.087 12.353 262.168 262.168 0 013.238 3.407c.731.789 1.1 1.218 1.071 1.246-.029.029-.454-.344-1.237-1.082a261.826 261.826 0 01-3.379-3.268c-2.914-2.857-7.1-7.023-12.248-12.194-10.297-10.341-24.435-24.709-40.023-40.6z" fill="#ECECEC"/><path d="M205.902 182.291l-33.146-46.399-10.113-14.012-2.778-3.789-.734-.977c-.167-.219-.257-.328-.264-.323-.007.005.069.125.223.353l.695 1.004 2.719 3.832 10.104 14.019 33.567 46.096c13.114 17.981 24.965 34.282 33.473 46.135 4.255 5.925 7.677 10.737 10.016 14.08 1.17 1.672 2.07 2.977 2.668 3.869.599.893.897 1.374.863 1.397-.032.024-.395-.41-1.053-1.26-.658-.85-1.612-2.115-2.829-3.753-2.434-3.275-5.92-8.041-10.199-13.949-8.562-11.814-20.29-28.203-33.212-46.323z" fill="#ECECEC"/><path d="M201.578 184.882l-25.472-51.004-7.796-15.418-2.15-4.177a457.12 457.12 0 01-.572-1.079c-.132-.242-.203-.364-.211-.36-.008.004.048.134.164.383l.53 1.101 2.085 4.209 7.784 15.424 25.938 50.77c10.139 19.807 19.292 37.758 25.84 50.793a1505.986 1505.986 0 017.688 15.472 259.105 259.105 0 012.029 4.238c.451.975.67 1.496.633 1.515-.036.018-.326-.467-.843-1.41-.517-.942-1.262-2.34-2.207-4.148-1.892-3.615-4.589-8.866-7.891-15.369-6.606-13.006-15.623-31.025-25.549-50.94z" fill="#ECECEC"/><path d="M196.9 186.765l-17.118-54.372-5.27-16.451-1.466-4.462-.395-1.156c-.092-.259-.143-.391-.152-.388-.008.002.026.139.102.404l.35 1.17 1.395 4.485 5.257 16.455 17.617 54.212c6.893 21.154 13.104 40.319 17.517 54.221 2.207 6.95 3.968 12.584 5.154 16.486a254.787 254.787 0 011.336 4.504c.292 1.034.426 1.584.387 1.596-.039.013-.249-.512-.612-1.524a252.98 252.98 0 01-1.526-4.443c-1.299-3.867-3.135-9.477-5.371-16.418-4.476-13.881-10.541-33.093-17.205-54.319z" fill="#ECECEC"/><path d="M191.982 187.888l-8.339-56.384-2.612-17.074-.745-4.637-.207-1.204c-.05-.271-.08-.409-.089-.407-.008.001.005.142.038.415l.16 1.211.672 4.648 2.599 17.075 8.855 56.306c3.474 21.973 6.587 41.876 8.754 56.298 1.085 7.21 1.936 13.05 2.494 17.091.278 2.02.484 3.591.609 4.658.126 1.067.172 1.63.131 1.636-.04.006-.165-.545-.363-1.601-.198-1.056-.47-2.616-.807-4.628-.673-4.023-1.602-9.851-2.717-17.057-2.232-14.412-5.196-34.338-8.433-56.346z" fill="#ECECEC"/><path d="M186.948 188.23l.514-56.994.073-17.272-.014-4.696-.018-1.221c-.006-.275-.014-.416-.023-.416-.008 0-.017.141-.026.416l-.029 1.221-.056 4.696-.083 17.271-.001 56.996c.016 22.245-.001 42.389-.1 56.972a1539.07 1539.07 0 01-.19 17.271 259.719 259.719 0 01-.12 4.696c-.041 1.073-.083 1.637-.123 1.637-.04-.001-.077-.565-.108-1.638a249.224 249.224 0 01-.077-4.697c-.039-4.079-.052-9.98-.034-17.272.033-14.583.198-34.727.415-56.97z" fill="#ECECEC"/><path d="M181.919 187.789l9.38-56.22 2.758-17.051.715-4.642.172-1.209c.036-.273.05-.414.041-.415-.008-.001-.04.136-.092.407l-.219 1.201-.788 4.63-2.77 17.049-8.865 56.304c-3.443 21.978-6.592 41.875-8.959 56.265-1.181 7.196-2.165 13.015-2.876 17.031a254.819 254.819 0 01-.85 4.621c-.208 1.054-.338 1.604-.378 1.597-.041-.006.01-.569.146-1.635.135-1.066.356-2.634.653-4.652.595-4.035 1.5-9.867 2.652-17.067 2.302-14.401 5.601-34.274 9.28-56.214z" fill="#ECECEC"/><path d="M177.021 186.567l18.131-54.043 5.413-16.405a7658.22 7658.22 0 001.437-4.471l.361-1.167c.078-.264.114-.401.105-.404-.008-.003-.061.129-.155.387l-.406 1.152-1.509 4.448-5.425 16.4-17.631 54.209c-6.864 21.162-13.11 40.316-17.717 54.155a1511.873 1511.873 0 01-5.527 16.366 257.108 257.108 0 01-1.569 4.428c-.373 1.008-.588 1.531-.627 1.518-.039-.013.1-.561.401-1.592.302-1.031.766-2.546 1.378-4.492a1473.12 1473.12 0 015.31-16.437c4.543-13.86 10.936-32.965 18.03-54.052z" fill="#ECECEC"/><path d="M172.382 184.593l26.417-50.523 7.93-15.35 2.125-4.189.541-1.096c.118-.248.176-.377.168-.381-.008-.004-.08.117-.214.358l-.582 1.074-2.19 4.156-7.942 15.343-25.956 50.761c-10.116 19.819-19.304 37.752-26.033 50.695-3.364 6.471-6.11 11.697-8.036 15.294-.963 1.799-1.72 3.19-2.246 4.127-.526.938-.82 1.421-.856 1.402-.036-.019.188-.538.649-1.509.461-.97 1.158-2.393 2.07-4.218 1.822-3.65 4.498-8.912 7.835-15.397 6.671-12.973 15.994-30.837 26.32-50.547z" fill="#ECECEC"/><path d="M168.108 181.914l34.002-45.777 10.235-13.923 2.755-3.806.705-.998c.157-.226.233-.345.226-.35-.007-.005-.097.103-.267.32l-.743.97-2.813 3.763-10.246 13.916-33.583 46.084c-13.093 17.997-24.975 34.275-33.648 46.008-4.335 5.867-7.866 10.6-10.331 13.852a256.938 256.938 0 01-2.865 3.726c-.666.843-1.032 1.274-1.065 1.25-.033-.024.27-.502.877-1.389.607-.886 1.519-2.182 2.704-3.843 2.371-3.321 5.838-8.1 10.149-13.985 8.62-11.772 20.624-27.961 33.908-45.818z" fill="#ECECEC"/><path d="M164.306 178.605l40.717-39.94 12.28-12.163 3.314-3.332.852-.876c.19-.2.284-.305.278-.311-.006-.006-.112.087-.314.275l-.885.843-3.365 3.28-12.288 12.155-40.352 40.307c-15.737 15.744-30.01 29.978-40.405 40.221a1503.819 1503.819 0 01-12.363 12.079 257.087 257.087 0 01-3.409 3.236c-.79.73-1.219 1.099-1.247 1.07-.029-.029.344-.454 1.082-1.236a269.08 269.08 0 013.27-3.376c2.86-2.913 7.029-7.095 12.204-12.239 10.349-10.29 24.728-24.417 40.631-39.993z" fill="#ECECEC"/><path d="M161.066 174.745l46.442-33.129 14.025-10.108 3.793-2.777.978-.733c.218-.168.328-.257.323-.264-.005-.007-.125.068-.353.222l-1.006.696-3.835 2.717-14.032 10.099-46.138 33.549c-17.998 13.108-34.314 24.953-46.178 33.456a1544.964 1544.964 0 01-14.093 10.012 257.393 257.393 0 01-3.873 2.666c-.893.599-1.374.896-1.398.863-.024-.032.41-.394 1.261-1.052.85-.658 2.117-1.611 3.757-2.828 3.278-2.433 8.048-5.917 13.961-10.194 11.825-8.557 28.23-20.279 46.366-33.195z" fill="#ECECEC"/><path d="M158.469 170.429l51.058-25.469 15.435-7.795 4.18-2.15 1.081-.572c.242-.132.364-.203.36-.211-.004-.008-.134.048-.383.165l-1.102.529-4.214 2.085-15.44 7.783-50.824 25.935c-19.828 10.137-37.798 19.289-50.847 25.836a1518.32 1518.32 0 01-15.487 7.687 257.782 257.782 0 01-4.243 2.029c-.976.451-1.498.67-1.517.633-.018-.036.468-.326 1.411-.843.943-.517 2.343-1.261 4.153-2.207 3.618-1.891 8.875-4.587 15.385-7.889 13.019-6.606 31.058-15.622 50.994-25.546z" fill="#ECECEC"/><path d="M156.581 165.758l54.436-17.128 16.47-5.273 4.467-1.467 1.157-.395c.26-.092.392-.144.389-.152-.003-.008-.14.026-.405.102l-1.172.35-4.489 1.396-16.475 5.26-54.276 17.628c-21.178 6.896-40.365 13.111-54.283 17.526-6.959 2.209-12.599 3.971-16.507 5.158a253.06 253.06 0 01-4.509 1.337c-1.035.292-1.585.426-1.598.387-.012-.039.513-.249 1.526-.611 1.013-.363 2.513-.878 4.448-1.528 3.872-1.299 9.488-3.136 16.437-5.374 13.898-4.478 33.133-10.547 54.384-17.216z" fill="#ECECEC"/><path d="M155.453 160.848l56.456-8.363 17.096-2.619 4.643-.746 1.205-.209c.271-.049.409-.079.408-.088-.002-.009-.142.004-.416.037l-1.213.162-4.653.674-17.098 2.606-56.377 8.878c-22.001 3.482-41.93 6.604-56.37 8.777-7.22 1.088-13.067 1.942-17.113 2.501-2.023.279-3.596.486-4.664.612-1.068.126-1.632.172-1.639.131-.006-.04.546-.165 1.604-.363a251.43 251.43 0 014.633-.809c4.028-.675 9.864-1.606 17.08-2.724 14.429-2.239 34.381-5.21 56.418-8.457z" fill="#ECECEC"/><path d="M155.107 155.821l57.072.478 17.296.062 4.703-.017 1.223-.018c.275-.007.416-.015.416-.024 0-.008-.141-.017-.416-.026l-1.223-.028-4.702-.053-17.296-.072-57.074.034c-22.275.03-42.447.026-57.05-.064-7.302-.043-13.211-.105-17.295-.179a268.18 268.18 0 01-4.702-.116c-1.075-.041-1.64-.082-1.64-.122 0-.04.565-.077 1.64-.109 1.076-.032 2.662-.059 4.704-.08 4.084-.042 9.993-.058 17.295-.045 14.604.024 34.775.176 57.049.379z" fill="#ECECEC"/><path d="M155.545 150.799l56.304 9.331 17.076 2.744 4.648.712 1.212.17c.273.036.414.05.415.041.001-.008-.137-.04-.407-.092l-1.204-.218-4.636-.783-17.074-2.756-56.388-8.817c-22.01-3.424-41.936-6.556-56.348-8.91a1520.499 1520.499 0 01-17.056-2.862 254.304 254.304 0 01-4.627-.846c-1.056-.207-1.607-.336-1.6-.376.006-.041.57.01 1.637.144 1.067.135 2.638.354 4.659.65 4.041.591 9.881 1.492 17.092 2.638 14.423 2.289 34.325 5.571 56.297 9.23z" fill="#ECECEC"/><path d="M156.765 145.907l54.129 18.072 16.431 5.394 4.478 1.433 1.169.359c.265.078.402.114.404.106.003-.009-.128-.061-.387-.156l-1.154-.404-4.455-1.504-16.426-5.407-54.295-17.572c-21.196-6.841-40.38-13.067-54.241-17.658-6.93-2.295-12.53-4.178-16.392-5.509a255.034 255.034 0 01-4.435-1.565c-1.01-.371-1.533-.585-1.52-.624.012-.039.561.099 1.594.399 1.033.301 2.55.763 4.499 1.373 3.898 1.219 9.523 3.027 16.463 5.292 13.882 4.529 33.018 10.901 54.138 17.971z" fill="#ECECEC"/><path d="M158.741 141.272l50.609 26.349 15.375 7.91 4.196 2.119 1.098.539c.249.119.378.176.382.168.005-.008-.117-.08-.358-.214l-1.076-.58-4.163-2.185-15.37-7.92-50.847-25.889c-19.852-10.089-37.816-19.253-50.781-25.965-6.483-3.355-11.717-6.094-15.32-8.015a252.109 252.109 0 01-4.135-2.24c-.939-.524-1.422-.818-1.404-.854.019-.036.539.187 1.511.647.973.459 2.397 1.155 4.226 2.064 3.656 1.817 8.927 4.487 15.423 7.815 12.995 6.654 30.889 15.952 50.634 26.251z" fill="#ECECEC"/><path d="M161.42 137.004l45.862 33.925 13.948 10.213 3.813 2.749 1 .703c.227.156.346.233.351.226.005-.007-.104-.098-.321-.267l-.972-.741-3.77-2.808-13.941-10.222-46.169-33.507c-18.03-13.064-34.338-24.92-46.093-33.574a1509.629 1509.629 0 01-13.877-10.308 257.414 257.414 0 01-3.733-2.858c-.845-.665-1.277-1.03-1.253-1.063.024-.033.503.269 1.391.875a258.17 258.17 0 013.851 2.698c3.327 2.365 8.115 5.825 14.011 10.126 11.794 8.6 28.012 20.578 45.902 33.833z" fill="#ECECEC"/><path d="M164.732 133.205l40.02 40.635 12.188 12.255a5102.47 5102.47 0 003.338 3.308l.878.85c.2.19.305.284.312.278.006-.006-.088-.112-.276-.313l-.845-.884-3.287-3.358-12.179-12.263-40.388-40.272c-15.776-15.705-30.039-29.95-40.302-40.324-5.133-5.186-9.268-9.402-12.103-12.338a262.136 262.136 0 01-3.243-3.403c-.731-.788-1.101-1.216-1.072-1.245.029-.028.455.344 1.238 1.08.783.737 1.924 1.837 3.383 3.264 2.919 2.854 7.109 7.015 12.263 12.18 10.311 10.327 24.467 24.678 40.075 40.55z" fill="#ECECEC"/><path d="M168.594 129.967l33.204 46.357 10.131 13.999 2.782 3.786.735.976c.168.219.258.328.265.323.007-.005-.069-.125-.223-.353l-.697-1.003-2.724-3.829-10.121-14.006-33.625-46.054c-13.137-17.964-25.008-34.25-33.531-46.093-4.263-5.92-7.691-10.727-10.034-14.067a258.513 258.513 0 01-2.673-3.866c-.6-.892-.898-1.372-.865-1.396.033-.024.396.41 1.055 1.26.659.848 1.614 2.112 2.834 3.749a1524.13 1524.13 0 0110.217 13.935c8.576 11.804 20.325 28.179 33.27 46.282z" fill="#ECECEC"/><path d="M172.914 127.37l25.537 50.972 7.815 15.408 2.156 4.174.573 1.079c.132.241.204.363.212.359.007-.004-.049-.134-.166-.383l-.53-1.1-2.091-4.207-7.803-15.414-26.003-50.737c-10.164-19.794-19.34-37.734-25.904-50.76a1524.412 1524.412 0 01-7.708-15.462 257.848 257.848 0 01-2.034-4.236c-.453-.974-.672-1.495-.635-1.514.036-.018.327.467.845 1.408.518.942 1.264 2.34 2.212 4.146 1.897 3.612 4.6 8.86 7.91 15.36 6.623 12.996 15.663 31.005 25.614 50.907z" fill="#ECECEC"/><path d="M177.59 125.482l17.187 54.35 5.291 16.444 1.472 4.46.396 1.156c.092.259.144.391.152.388.009-.003-.026-.14-.102-.404l-.351-1.17-1.401-4.483-5.278-16.448-17.686-54.19c-6.92-21.145-13.156-40.302-17.586-54.198-2.216-6.948-3.984-12.58-5.175-16.48a252.527 252.527 0 01-1.342-4.503c-.293-1.034-.428-1.583-.388-1.595.039-.013.249.512.613 1.523.363 1.011.88 2.509 1.532 4.441 1.304 3.866 3.147 9.473 5.392 16.411 4.493 13.876 10.583 33.08 17.274 54.298z" fill="#ECECEC"/><path d="M182.506 124.352l8.411 56.374 2.633 17.07.75 4.636.21 1.204c.05.27.08.408.089.407.008-.001-.005-.142-.038-.415a990.65 990.65 0 01-.163-1.211l-.678-4.647-2.62-17.072-8.926-56.295c-3.502-21.968-6.64-41.867-8.826-56.286-1.094-7.21-1.952-13.048-2.514-17.088-.282-2.02-.489-3.59-.616-4.657-.127-1.067-.173-1.63-.133-1.637.04-.006.165.546.365 1.601.2 1.056.474 2.616.813 4.627.678 4.022 1.615 9.849 2.739 17.054 2.25 14.409 5.239 34.331 8.504 56.335z" fill="#ECECEC"/><path d="M187.539 124.004l-.442 56.994-.051 17.272.02 4.696.019 1.221c.007.275.015.416.023.416.009 0 .017-.141.026-.416l.027-1.221.051-4.696.061-17.271-.07-56.996c-.044-22.245-.052-42.39.028-56.972.039-7.292.097-13.193.168-17.271.036-2.04.074-3.623.114-4.696.04-1.074.081-1.637.121-1.637.04 0 .077.564.11 1.638.033 1.074.061 2.657.083 4.696.045 4.079.064 9.98.056 17.272-.015 14.583-.154 34.727-.344 56.971z" fill="#ECECEC"/><path d="M192.569 124.438l-9.308 56.232-2.736 17.055-.71 4.642-.17 1.21c-.035.273-.049.413-.04.415.008.001.039-.137.091-.407l.218-1.202.781-4.631 2.749-17.052 8.793-56.315c3.414-21.983 6.537-41.884 8.886-56.277a1505.413 1505.413 0 012.854-17.035c.353-2.009.638-3.567.845-4.621.206-1.054.335-1.605.376-1.598.04.006-.01.57-.144 1.635a262.78 262.78 0 01-.647 4.653 1515.43 1515.43 0 01-2.631 17.07c-2.283 14.404-5.557 34.281-9.207 56.226z" fill="#ECECEC"/><path d="M197.469 125.654l-18.062 54.066-5.391 16.412-1.432 4.473-.359 1.167c-.078.264-.114.401-.105.404.008.003.061-.128.155-.387l.405-1.153 1.503-4.45 5.403-16.407 17.561-54.231c6.837-21.171 13.059-40.333 17.648-54.178a1491.353 1491.353 0 015.505-16.373 257.08 257.08 0 011.564-4.43c.371-1.009.585-1.532.624-1.519.04.013-.098.561-.398 1.593a262.22 262.22 0 01-1.372 4.493c-1.218 3.893-3.025 9.512-5.289 16.444-4.526 13.866-10.894 32.98-17.96 54.076z" fill="#ECECEC"/><path d="M202.11 127.622l-26.352 50.557-7.911 15.359-2.119 4.192-.539 1.097c-.119.248-.176.378-.168.382.008.004.08-.118.214-.359l.581-1.075 2.184-4.158 7.922-15.354 25.891-50.793c10.09-19.833 19.255-37.778 25.968-50.729a1514.627 1514.627 0 018.016-15.304c.96-1.8 1.716-3.193 2.241-4.13.524-.938.818-1.422.854-1.403.036.018-.187.538-.647 1.51-.459.97-1.155 2.394-2.064 4.22-1.817 3.653-4.487 8.918-7.816 15.408-6.654 12.98-15.954 30.856-26.255 50.58z" fill="#ECECEC"/><path d="M206.387 130.296l-33.943 45.82-10.218 13.936a15357.45 15357.45 0 00-2.75 3.809l-.704.999c-.156.227-.232.346-.225.351.007.005.097-.103.267-.32l.741-.972 2.809-3.766 10.228-13.929 33.524-46.127c13.07-18.013 24.932-34.307 33.589-46.05 4.328-5.873 7.853-10.61 10.314-13.865a254.551 254.551 0 012.86-3.73c.665-.844 1.03-1.276 1.063-1.252.033.024-.269.502-.875 1.39-.605.888-1.516 2.185-2.699 3.847a1528.405 1528.405 0 01-10.131 13.998c-8.605 11.783-20.588 27.987-33.85 45.861z" fill="#ECECEC"/><path d="M210.193 133.601l-40.666 39.991-12.264 12.179-3.31 3.336-.851.877c-.189.2-.284.305-.278.311.007.007.113-.087.314-.275l.884-.844 3.361-3.284 12.272-12.171 40.301-40.359c15.717-15.763 29.972-30.016 40.354-40.272 5.19-5.129 9.409-9.26 12.347-12.094a260.72 260.72 0 013.406-3.24c.789-.731 1.217-1.1 1.246-1.072.028.029-.344.454-1.081 1.237-.737.783-1.838 1.923-3.266 3.38-2.856 2.917-7.02 7.105-12.188 12.255-10.336 10.303-24.697 24.449-40.581 40.045z" fill="#ECECEC"/><path d="M213.438 137.455l-46.4 33.188-14.011 10.126-3.79 2.781-.977.734c-.218.168-.327.258-.322.265.005.007.124-.069.352-.223l1.005-.697 3.832-2.722 14.019-10.116 46.095-33.608c17.981-13.131 34.283-24.996 46.135-33.515 5.926-4.26 10.737-7.687 14.081-10.03a257.214 257.214 0 013.869-2.671c.893-.6 1.374-.898 1.397-.865.024.033-.41.395-1.26 1.054-.85.66-2.115 1.614-3.752 2.833a1535.737 1535.737 0 01-13.949 10.212c-11.814 8.572-28.204 20.315-46.324 33.254z" fill="#ECECEC"/><path d="M216.042 141.768l-51.026 25.535-15.425 7.814-4.177 2.155-1.08.574c-.242.132-.364.203-.36.211.004.008.133-.048.383-.165l1.102-.531 4.211-2.09 15.43-7.803 50.79-25.999c19.815-10.163 37.773-19.338 50.814-25.902a1520.195 1520.195 0 0115.477-7.707 257.405 257.405 0 014.241-2.034c.975-.453 1.497-.672 1.515-.636.019.037-.467.327-1.409.845-.943.519-2.342 1.265-4.15 2.213-3.616 1.896-8.869 4.599-15.375 7.909-13.011 6.622-31.038 15.661-50.961 25.611z" fill="#ECECEC"/><path d="M217.935 146.436l-54.413 17.199-16.463 5.294-4.466 1.473-1.157.396c-.259.093-.391.144-.388.153.002.008.14-.027.404-.103l1.172-.351 4.488-1.402 16.467-5.281 54.253-17.698c21.17-6.924 40.349-13.163 54.262-17.596 6.955-2.218 12.593-3.987 16.499-5.179a254.557 254.557 0 014.508-1.343c1.035-.293 1.584-.428 1.597-.389.013.039-.513.25-1.525.614-1.012.363-2.511.88-4.446 1.532-3.87 1.305-9.484 3.149-16.43 5.396-13.892 4.496-33.119 10.589-54.362 17.285z" fill="#ECECEC"/><path d="M219.07 151.346l-56.446 8.435-17.092 2.64-4.642.753-1.205.209c-.271.051-.409.081-.408.089.002.009.142-.004.416-.038l1.212-.162 4.653-.68 17.095-2.628 56.366-8.951c21.996-3.51 41.92-6.657 56.358-8.849 7.218-1.097 13.064-1.958 17.11-2.522 2.022-.283 3.594-.491 4.663-.618 1.068-.128 1.632-.174 1.638-.134.007.04-.546.166-1.603.366-1.056.2-2.618.475-4.632.815a1538.17 1538.17 0 01-17.075 2.746c-14.428 2.256-34.375 5.254-56.408 8.529z" fill="#ECECEC"/><path d="M241.934 70.64l.507.84a5.762 5.762 0 002.386 2.195l.881.435-.842.507A5.763 5.763 0 00242.668 77l-.436.88-.506-.842a5.77 5.77 0 00-2.387-2.194l-.881-.435.842-.506a5.762 5.762 0 002.198-2.383l.436-.88zM240.882 169.328l.31.515a3.533 3.533 0 001.46 1.342l.539.266-.515.31a3.526 3.526 0 00-1.344 1.458l-.267.538-.31-.514a3.53 3.53 0 00-1.46-1.343l-.539-.266.515-.31a3.514 3.514 0 001.344-1.458l.267-.538zM291.199 223.718l.31.514a3.527 3.527 0 001.459 1.343l.54.266-.516.31a3.52 3.52 0 00-1.344 1.458l-.267.538-.31-.515a3.527 3.527 0 00-1.46-1.342l-.539-.266.516-.31a3.532 3.532 0 001.344-1.458l.267-.538zM96.302 197.383l.31.515a3.532 3.532 0 001.46 1.342l.539.266-.516.31a3.52 3.52 0 00-1.344 1.458l-.267.538-.31-.515a3.533 3.533 0 00-1.46-1.342l-.539-.266.516-.31a3.532 3.532 0 001.344-1.458l.267-.538zM156.983 53.535l.31.515a3.528 3.528 0 001.46 1.342l.539.266-.515.31a3.52 3.52 0 00-1.344 1.458l-.267.538-.31-.514a3.528 3.528 0 00-1.46-1.343l-.539-.266.515-.31a3.53 3.53 0 001.345-1.457l.266-.539zM107.384 58.594l.31.514a3.528 3.528 0 001.46 1.343l.539.266-.515.31a3.53 3.53 0 00-1.345 1.457l-.266.539-.31-.515a3.528 3.528 0 00-1.46-1.342l-.539-.266.515-.31a3.521 3.521 0 001.344-1.458l.267-.538zM130.525 108.853l.31.514a3.53 3.53 0 001.46 1.343l.539.266-.515.309a3.526 3.526 0 00-1.344 1.458l-.267.539-.31-.515a3.527 3.527 0 00-1.46-1.342l-.539-.267.515-.309a3.535 3.535 0 001.345-1.458l.266-.538zM245.378 122.903l.31.515a3.52 3.52 0 001.46 1.342l.539.267-.515.309a3.526 3.526 0 00-1.344 1.458l-.267.538-.31-.514a3.53 3.53 0 00-1.46-1.343l-.539-.266.515-.31a3.526 3.526 0 001.345-1.457l.266-.539zM240.882 224.961l.31.515a3.533 3.533 0 001.46 1.342l.539.266-.515.31a3.52 3.52 0 00-1.344 1.458l-.267.538-.31-.515a3.533 3.533 0 00-1.46-1.342l-.539-.266.515-.31a3.514 3.514 0 001.344-1.458l.267-.538zM151.549 74.519l.626 1.038a7.119 7.119 0 002.944 2.707l1.088.538-1.04.624a7.108 7.108 0 00-2.711 2.94l-.538 1.087-.626-1.038a7.112 7.112 0 00-2.944-2.708l-1.088-.537 1.04-.625a7.107 7.107 0 002.711-2.94l.538-1.086zM286.633 69.353l.625 1.038a7.115 7.115 0 002.945 2.707l1.087.537-1.039.625a7.116 7.116 0 00-2.712 2.94l-.538 1.087-.625-1.038a7.115 7.115 0 00-2.945-2.708l-1.087-.537 1.039-.625a7.116 7.116 0 002.712-2.94l.538-1.086zM229.287 53.156l.363.603a4.134 4.134 0 001.71 1.572l.631.312-.603.362c-.678.407-1.224 1-1.575 1.708l-.312.63-.363-.602a4.133 4.133 0 00-1.71-1.572l-.631-.312.603-.363a4.13 4.13 0 001.575-1.707l.312-.63zM105.458 175.785l.548.909a6.234 6.234 0 002.578 2.371l.952.47-.91.547a6.226 6.226 0 00-2.374 2.575l-.471.951-.548-.909a6.234 6.234 0 00-2.578-2.371l-.952-.47.91-.547a6.233 6.233 0 002.374-2.575l.471-.951zM264.504 228.508l.548.909a6.228 6.228 0 002.578 2.371l.952.47-.91.547a6.226 6.226 0 00-2.374 2.575l-.471.951-.548-.909a6.227 6.227 0 00-2.578-2.371l-.952-.47.91-.548a6.224 6.224 0 002.374-2.574l.471-.951z" fill="#E1E1E1"/><path d="M299.963 252.218c0 .07-49.23.126-109.943.126-60.735 0-109.954-.056-109.954-.126 0-.069 49.219-.125 109.954-.125 60.713 0 109.943.056 109.943.125z" fill="#132F36"/><path d="M224.084 247.73l-.53-.801-64.436-2.193-8.24 21.709 77.132-.091-3.926-18.624z" fill="#FF6753"/><path opacity=".3" d="M224.084 247.73l-.53-.801-64.436-2.193-8.24 21.709 77.132-.091-3.926-18.624z" fill="#000"/><path d="M149.033 199.658c1.059 4.75 2.335 9.399 3.628 15.322v.016c.28 1.267.56 2.604.833 4.003.389 1.959.77 4.05 1.144 6.328v.008c.42 2.565.825 5.348 1.214 8.419.343 2.658.662 5.527.965 8.644v.008c.133 1.36.265 2.76.39 4.221.241 2.853.475 5.9.677 9.157.218 3.32.405 6.857.576 10.635 2.818-.07 86.049 0 86.049 0-.46-5.527-.872-10.736-1.238-15.75-.202-2.79-.397-5.519-.561-8.209-.007-.023-.007-.046-.007-.062a615.587 615.587 0 01-.499-8.551 523.619 523.619 0 01-.56-14.482c-.008-.21-.015-.412-.015-.622a494.205 494.205 0 01-.133-9.158 470.8 470.8 0 01.101-14.249c.016-1.259.047-2.534.078-3.825v-.015c.109-3.972.249-8.116.436-12.469v-.008c.234-5.434.537-11.186.911-17.374.451-7.292-.062-16.978-5.013-21.098l-.008-.008a8.175 8.175 0 00-1.604-1.049 8.721 8.721 0 00-2.701-.84l-26.132-4.065-9.116-1.415-13.428 2.627-29.456 5.776a8.89 8.89 0 00-1.043.265c-2 .598-3.565 1.718-4.756 3.311-3.036 4.058-3.667 11.218-3.067 20.841-.701 16.574.467 25.273 2.335 33.668z" fill="#007BFF"/><path d="M149.033 199.658c1.059 4.75 2.335 9.399 3.628 15.322v.016c.28 1.267.56 2.604.833 4.003.389 1.959.77 4.05 1.144 6.328v.008c.42 2.565.825 5.348 1.214 8.419.343 2.658.662 5.527.965 8.644v.008c.133 1.36.265 2.76.39 4.221.241 2.853.475 5.9.677 9.157.218 3.32.405 6.857.576 10.635 2.818-.07 86.049 0 86.049 0-.46-5.527-.872-10.736-1.238-15.75-.202-2.79-.397-5.519-.561-8.209-.007-.023-.007-.046-.007-.062a615.587 615.587 0 01-.499-8.551 523.619 523.619 0 01-.56-14.482c-.008-.21-.015-.412-.015-.622a494.205 494.205 0 01-.133-9.158 470.8 470.8 0 01.101-14.249c.016-1.259.047-2.534.078-3.825v-.015c.109-3.972.249-8.116.436-12.469v-.008c.234-5.434.537-11.186.911-17.374.451-7.292-.062-16.978-5.013-21.098l-.008-.008a8.175 8.175 0 00-1.604-1.049 8.721 8.721 0 00-2.701-.84l-26.132-4.065-9.116-1.415-13.428 2.627-29.456 5.776a8.89 8.89 0 00-1.043.265c-2 .598-3.565 1.718-4.756 3.311-3.036 4.058-3.667 11.218-3.067 20.841-.701 16.574.467 25.273 2.335 33.668z" fill="#FF8700"/><path opacity=".2" d="M203.284 166.735l-.672-.225c-.396-.133-9.798-3.371-18.918-13.596-2.426-2.719-5.217-6.855-4.737-11.115.269-2.392 1.581-4.488 3.795-6.063 1.266-.902 1.796-5.797 2.112-8.722.109-1.001.211-1.946.333-2.855.511-3.735-1.457-16.161-3.845-19.752l-3.44-5.175 31.627 13.032-.424 1.606a19.64 19.64 0 00-.432 2.023l-.011.065c-.147.763-.256 1.5-.324 2.188l-.008.065c-.2 1.489-.638 5.381-.378 9.347.31 4.474 1.402 7.441 3.157 8.572 3.304 2.111 7.139 5.844 6.619 11.621-.361 4.016-2.745 8.363-7.083 12.919-2.859 3.002-6.149 5.564-6.715 5.796l-.656.269zm-18.325-27.907c-1.347.958-2.074 2.069-2.223 3.395-.249 2.205 1.135 5.181 3.797 8.165 4.39 4.921 8.853 8.062 11.823 9.83 2.009 1.195 3.627 1.943 4.568 2.339a46.532 46.532 0 005.544-5.113c2.55-2.793 5.577-6.944 5.514-10.866-.044-2.794-1.653-5.167-4.918-7.254-2.848-1.835-4.494-5.707-4.896-11.51-.271-4.138.131-8.076.399-10.077a28.39 28.39 0 01.364-2.462c.039-.249.083-.497.132-.747l-18.572-7.653c1.834 5.854 2.942 14.376 2.474 17.794a107.53 107.53 0 00-.32 2.753c-.506 4.678-1.03 9.516-3.687 11.406h.001z" fill="#000"/><path d="M183.855 137.281c-5.234 3.725-3.01 9.585 1.258 14.37 8.89 9.966 18.105 13.059 18.105 13.059.138-.057 23.089-16.621 6.871-26.985-2.685-1.73-3.729-5.791-4.024-10.043-.233-3.557.053-7.21.391-9.724a26.05 26.05 0 01.349-2.358c.123-.792.287-1.515.472-2.214l-24.34-10.03c2.674 4.023 4.712 16.911 4.145 21.056-.627 4.653-.806 11.146-3.227 12.869z" fill="#FF8700"/><path opacity=".2" d="M206.065 127.682c-.234-3.557.053-7.21.391-9.724.081-.818.205-1.611.348-2.358l-18.825-3.605c3.952 3.936 9.484 11.928 18.086 15.687z" fill="#000"/><path d="M231.58 85.112c-.614 4.039-6.344 10.605-6.073 10.207.271-.397.27-.915.235-1.395a14.885 14.885 0 00-1.375-5.264c-.481 2.255-1.22 6.926-3.529 6.96-.917-1.667-2.044-3.188-1.888-5.084-.533 1.94-1.019 3.893-1.551 5.834-4.483-2.667-7.321-8.81-6.393-13.938.225-1.241.638-2.46 1.32-3.522.78-1.215 1.882-2.186 2.985-3.12 2.924-2.475 6.641-4.5 10.331-3.466 7.068 1.983 6.553 8.749 5.938 12.788z" fill="#CD6E00"/><path d="M226.688 103.878c-3.024 16.451-22.743 25.126-35.762 13.339-7.519-6.787-8.715-14.888-10.086-27.517-.218-1.916-.431-3.928-.677-6.075a22.667 22.667 0 011.005-9.889 20.324 20.324 0 011.702-3.812c5.158-9.262 16.326-13.825 26.745-10.319 16.323 5.492 19.811 29.467 17.073 44.273z" fill="#FF8700"/><path d="M207.142 86.167a.72.72 0 00.296-.226.764.764 0 00-.15-1.07l-.031-.022a7.554 7.554 0 00-6.901-1.17.763.763 0 00-.417.997l.011.025a.786.786 0 001.01.432 5.918 5.918 0 015.477.937c.202.154.469.19.705.097zM222.499 83.928a.723.723 0 00.295-.226.763.763 0 00-.181-1.092 7.552 7.552 0 00-6.9-1.17.764.764 0 00-.418.997l.011.025a.786.786 0 001.01.432 5.917 5.917 0 015.477.937c.202.153.47.19.706.097zM203.88 106.348a11.464 11.464 0 008.631 2.252.413.413 0 00.364-.423.373.373 0 00-.392-.351l-.016.002a10.947 10.947 0 01-9.159-3.003.371.371 0 00-.556.014.412.412 0 00.014.555c.353.339.725.657 1.114.954zM189.44 113.693a13.376 13.376 0 01-5.506-2.412c-.023 2.184-1.47 5.929-1.47 5.929-6.954-2.287-12.681-16.185-13.448-20.79-3.874 7.181-3.534 3.053-3.833.005-.432-4.387-.543-8.932.958-13.078 1.501-4.146 4.92-7.841 9.276-8.558 1.509-.248 3.369.684 4.186 1.973.818 1.29 1.161 2.817 1.439 4.318 2.02 10.892 1.933 23.611 8.398 32.613z" fill="#CD6E00"/><path d="M179.573 88.724c5.324.116 8.574 6.82 9.137 11.406.666 5.103-2.767 9.301-7.702 7.043a15.249 15.249 0 01-7.951-8.725c-1.644-4.743 1.191-9.84 6.516-9.724z" fill="#FF8700"/><path d="M193.538 80.976c-2.232-5.25-5.341-7.81-3.548-7.505 4.871.828 7.906-3.456 11.457-.957 1.721 2.042-.335 5.774-.417 5.571 1.78.883 4.022.237 5.511-1.077 1.489-1.314 2.032-3.623 2.784-5.46.532 1.816.415 4.37-.222 6.153 1.276 1.053 3.945-.86 5.167-1.974 1.222-1.115 2.092-2.995 2.665-4.546.429 1.82.771 3.68-.547 5.848 1.825.126 4.225-.414 5.439-1.78 1.214-1.366 1.968-3.514 1.626-5.308.399.938.414 4.777-.411 5.377 3.144-.998 6.067-4.912 5.946-8.205-.122-3.292-2.19-6.34-4.987-8.086-1.384-.864-2.925-1.441-4.377-2.186-2.24-1.15-16.406-12.167-37.559-.095-13.131 7.495-10.783 22.786-9.253 24.454 1.898 2.07 4.924 2.799 7.722 2.553 2.799-.245 13.593-1.39 13.004-2.777z" fill="#CD6E00"/><path d="M190.235 73.088c2.809 2.97 4.153 7.26 3.538 11.3-.614 4.039-6.344 10.605-6.074 10.207.271-.397.27-.915.236-1.395a14.883 14.883 0 00-1.375-5.264c-.481 2.255-1.22 6.926-3.529 6.96-.917-1.667-2.044-3.188-1.888-5.084-.533 1.94-1.019 3.893-1.552 5.834-4.482-2.667-7.32-8.81-6.392-13.938.225-1.242.638-2.46 1.32-3.522.78-1.216 1.882-2.187 2.985-3.12 2.924-2.475 6.796-4.945 10.33-3.466.514.215 2.54.95 2.401 1.488zM201.554 89.465c.007 1.344.722 2.426 1.589 2.448.867.022 1.568-1.038 1.638-2.418.07-1.38-.721-2.426-1.589-2.448-.867-.022-1.641 1.094-1.638 2.418zM218.657 89.465c.007 1.344.721 2.426 1.588 2.448.868.022 1.568-1.038 1.639-2.418.07-1.38-.722-2.426-1.589-2.448-.868-.022-1.641 1.094-1.638 2.418zM212.393 100.765c1.104.07 3.059.546 3.101-1.098.031-1.246-.229-2.556-.429-3.78-.099-.61.837-.873.938-.257a41.46 41.46 0 01.408 3.16c.059.677.141 1.418-.158 2.056-.675 1.44-2.604.969-3.86.89-.621-.039-.625-1.01 0-.971z" fill="#CD6E00"/><path d="M282.239 101.056s13.625 27.374 15.938 33.124c2.004 4.98 13.073 28.306 9.65 34.778-3.423 6.472-6.462 6.135-11.232 6.395-4.769.26-35.799-1.016-43.842-1.351-10.239-.426-21.496-3.327-21.496-3.327l5.28-28.044 41.018 7.619-6.931-44.505 11.615-4.689z" fill="#FF8700"/><path d="M282.318 101.259s-2.365-4.191-3.828-5.196c-1.464-1.004-13.353-11.416-13.353-11.416s-4.665-4.932-5.945-4.659c-1.281.275-13.445 8.403-13.536 9.682-.092 1.279.548 2.01 1.28 2.192.732.183-.366 1.005 1.555 2.923 0 0-1.829-.092-1.738 1.644.092 1.735 0 4.11 1.189 4.201 1.189.091 4.939 1.187 5.122-.822l.366-.822s3.201 2.283 6.128 3.471c2.926 1.187 7.591 1.096 7.591 1.096s1.28 1.918 3.475 2.192c2.195.274 11.694-4.486 11.694-4.486z" fill="#FF8700"/><path opacity=".3" d="M264.087 93.758c-.038-.03-.443.433-.638 1.374-.204.928-.093 2.302.547 3.608.641 1.3 1.537 2.255 2.191 2.9.664.643 1.112.995 1.157.951.048-.047-.319-.485-.913-1.179-.586-.695-1.409-1.656-2.011-2.878-.596-1.22-.749-2.476-.642-3.351.098-.884.381-1.388.309-1.425zM258.489 96.17c-.023.018-.009.1.1.198.108.096.318.17.564.157.498-.027 1.103-.348 1.549-.913a2.643 2.643 0 00.566-1.687c-.027-.465-.177-.718-.232-.7-.069.017-.043.283-.101.683-.064.397-.23.939-.606 1.415-.365.47-.862.782-1.22.871-.373.105-.567-.063-.62-.024z" fill="#000"/><path opacity=".3" d="M263.048 84.549c.022-.013-.432-.22-1.164.093-.355.152-.747.449-1.088.871-.349.42-.653.946-1.02 1.495a43.934 43.934 0 01-4.577 5.806c-.324.35-.689.725-.902 1.247-.232.524-.123 1.182.176 1.644.287.477.679.834 1.043 1.17.37.336.743.657 1.118.961.763.603 1.483 1.168 2.288 1.62.405.217.862.372 1.329.366.466-.007.891-.167 1.248-.372.704-.427 1.254-.963 1.6-1.585.348-.62.373-1.336.144-1.858-.215-.543-.713-.834-1.104-.868-.398-.048-.706.076-.865.203-.164.127-.207.231-.198.237.015.05.312-.387 1.033-.259.342.062.725.317.889.785.172.457.134 1.06-.19 1.598-.315.535-.86 1.039-1.501 1.406-.323.177-.686.3-1.058.298-.374-.001-.755-.131-1.122-.333-.726-.42-1.466-1.005-2.2-1.595a26.224 26.224 0 01-1.093-.95c-.361-.332-.718-.668-.956-1.066-.242-.394-.312-.832-.144-1.231.159-.404.481-.756.803-1.103a38.693 38.693 0 004.52-5.942c.354-.57.636-1.1.946-1.51.305-.416.644-.703.962-.87.646-.34 1.086-.21 1.083-.258z" fill="#000"/><path opacity=".3" d="M260.897 93.278c-.052.029-.006.246.201.53.204.282.59.607 1.097.792.508.184 1.013.182 1.351.096.341-.084.516-.221.495-.277-.044-.128-.817.068-1.685-.262-.876-.303-1.343-.95-1.459-.88zM258.262 82.903c-.025-.021-.273.237-.699.721-.426.484-1.03 1.194-1.77 2.077l-2.577 3.12-1.509 1.85c-.513.644-1.097 1.297-1.532 2.108-.439.784-.645 1.834-.194 2.667.429.818 1.143 1.296 1.732 1.76 1.227.91 2.261 1.789 3.275 2.412.514.296 1.043.48 1.533.493.484.013.895-.11 1.187-.28.598-.355.669-.789.65-.778-.04-.03-.17.347-.735.615-.275.13-.655.216-1.087.18-.428-.034-.906-.22-1.377-.516-.93-.618-1.976-1.545-3.178-2.469-.591-.472-1.245-.947-1.586-1.623-.355-.671-.204-1.508.197-2.24.396-.744.961-1.386 1.475-2.039l1.488-1.869 2.498-3.182c.706-.91 1.271-1.652 1.653-2.171.382-.52.582-.816.556-.837zM254.295 83.841c-.118-.082-1.612 2.221-4.122 4.433-.625.558-1.238 1.103-1.708 1.692-.477.582-.793 1.212-.935 1.769-.298 1.141.087 1.844.125 1.806.08-.013-.159-.697.195-1.71.171-.501.484-1.055.949-1.588.46-.538 1.058-1.056 1.689-1.618a19.447 19.447 0 002.909-3.225c.642-.91.949-1.527.898-1.559z" fill="#000"/><path opacity=".3" d="M248.551 96.86c-.001.166 1.342.005 2.79.49.712.257 1.265.689 1.586 1.065.327.374.454.675.524.652.054-.011.041-.37-.255-.85-.287-.477-.889-1.02-1.694-1.31-.802-.285-1.571-.294-2.102-.25-.535.046-.854.14-.849.203zM277.663 149.97c-.054.025.154.636.63 1.562a18.975 18.975 0 002.264 3.375 19.014 19.014 0 002.925 2.824c.828.633 1.393.945 1.427.897.089-.118-1.993-1.617-3.99-4.023-2.017-2.389-3.125-4.701-3.256-4.635z" fill="#000"/><path opacity=".2" d="M247.486 173.594l4.648-28.067 3.178.591-3.663 27.828-4.163-.352z" fill="#000"/><path d="M119.107 96.027s-14.366 28.862-16.805 34.925c-2.112 5.25-13.782 29.845-10.174 36.668 3.61 6.824 6.814 6.469 11.842 6.743 5.029.274 37.745-1.072 46.226-1.425 10.795-.449 22.663-3.508 22.663-3.508l-5.566-29.568-43.247 8.033 7.307-46.923-12.246-4.945z" fill="#FF8700"/><path d="M119.024 96.241s2.494-4.418 4.037-5.477c1.543-1.06 14.079-12.037 14.079-12.037s4.917-5.2 6.267-4.912c1.35.29 14.176 8.86 14.272 10.208.097 1.348-.578 2.118-1.35 2.311-.771.193.386 1.06-1.639 3.082 0 0 1.359-.037 1.832 1.733.453 1.697.541 3.419-1.254 4.43-1.36.766-4.612 1.535-5.749-1.653l-.036-.08s-3.376 2.407-6.461 3.658c-3.086 1.252-8.004 1.156-8.004 1.156s-1.35 2.022-3.664 2.311c-2.315.289-12.33-4.73-12.33-4.73z" fill="#FF8700"/><path opacity=".3" d="M138.246 88.333c.039-.033.466.456.672 1.448.216.978.098 2.427-.576 3.804-.676 1.37-1.621 2.377-2.31 3.057-.701.678-1.173 1.05-1.22 1.004-.052-.05.336-.512.962-1.243.618-.734 1.486-1.747 2.12-3.035.629-1.286.79-2.61.677-3.533-.103-.932-.401-1.464-.325-1.502zM144.147 90.876c.025.019.01.106-.104.21-.114.1-.336.179-.595.164-.525-.028-1.163-.366-1.633-.962a2.777 2.777 0 01-.597-1.78c.028-.49.186-.756.244-.738.073.019.046.3.107.722.068.418.242.989.639 1.49.385.497.909.825 1.286.92.393.11.598-.067.653-.026z" fill="#000"/><path opacity=".3" d="M139.341 78.623c-.023-.014.456-.233 1.227.097.375.161.788.474 1.148.92.368.442.689.997 1.075 1.576a46.304 46.304 0 002.914 3.946 45.34 45.34 0 001.912 2.175c.342.37.727.764.951 1.314.244.553.129 1.247-.186 1.734-.303.502-.715.88-1.1 1.233-.389.354-.782.693-1.179 1.014-.803.635-1.563 1.231-2.411 1.709-.428.227-.91.391-1.401.384-.492-.007-.94-.176-1.316-.392-.743-.45-1.323-1.015-1.688-1.67-.367-.654-.393-1.41-.151-1.96.227-.572.751-.878 1.164-.915.42-.05.744.08.912.214.173.135.218.244.208.25-.016.052-.329-.408-1.089-.273-.36.065-.764.334-.937.828-.181.482-.141 1.118.2 1.685.333.563.906 1.095 1.582 1.482.341.186.724.316 1.117.314.393-.001.796-.138 1.182-.351.766-.443 1.546-1.06 2.32-1.682.387-.317.772-.652 1.153-1.001.38-.35.756-.704 1.007-1.124.256-.415.329-.877.152-1.298-.168-.426-.508-.797-.847-1.164a40.98 40.98 0 01-1.911-2.217 39.727 39.727 0 01-2.854-4.047c-.374-.6-.671-1.16-.998-1.593-.322-.438-.679-.74-1.014-.917-.681-.357-1.145-.222-1.142-.272z" fill="#000"/><path opacity=".3" d="M141.609 87.826c.055.03.007.26-.212.559-.215.297-.622.64-1.156.835-.536.194-1.068.192-1.425.101-.359-.088-.543-.233-.521-.292.046-.134.861.072 1.775-.276.925-.32 1.417-1.001 1.539-.927zM144.387 76.888c.026-.022.287.25.737.76.449.51 1.086 1.26 1.866 2.19l2.717 3.29 1.592 1.951c.54.678 1.156 1.367 1.615 2.222.463.826.679 1.934.204 2.812-.453.863-1.205 1.366-1.826 1.855-1.294.961-2.384 1.887-3.453 2.543-.542.313-1.1.507-1.617.52a2.373 2.373 0 01-1.251-.295c-.631-.374-.705-.831-.685-.82.042-.032.179.366.774.648.291.138.691.228 1.147.19.451-.036.955-.232 1.451-.544.981-.651 2.084-1.628 3.352-2.603.623-.498 1.312-.999 1.671-1.711.375-.708.215-1.59-.207-2.362-.418-.784-1.013-1.461-1.555-2.15l-1.569-1.97-2.635-3.355c-.744-.96-1.339-1.742-1.742-2.29-.403-.547-.613-.86-.586-.881zM148.569 77.877c.125-.086 1.7 2.342 4.347 4.674.659.588 1.304 1.163 1.801 1.784.502.614.835 1.278.985 1.865.314 1.204-.092 1.945-.131 1.905-.085-.014.167-.736-.206-1.803-.181-.529-.511-1.112-1.001-1.674-.485-.568-1.116-1.114-1.781-1.707a20.566 20.566 0 01-3.067-3.4c-.676-.959-1-1.61-.947-1.644z" fill="#000"/><path opacity=".3" d="M154.909 91.799c.001.175-1.415.005-2.941.517-.751.27-1.334.726-1.673 1.122-.345.395-.478.712-.552.688-.057-.012-.043-.39.269-.896.302-.503.937-1.077 1.786-1.38.845-.302 1.656-.312 2.216-.266.564.05.9.15.895.215zM123.932 147.6c.057.026-.162.67-.665 1.647-.501.975-1.31 2.27-2.386 3.559a20.106 20.106 0 01-3.085 2.977c-.873.667-1.469.996-1.505.945-.093-.124 2.102-1.704 4.208-4.241 2.126-2.519 3.295-4.956 3.433-4.887z" fill="#000"/><path opacity=".2" d="M159.093 172.158l-5.597-29.733-3.198.594 3.824 29.653 4.971-.514z" fill="#000"/><path d="M249.457 229.185s-11.971-13.759-16.489-27.519c-4.517-13.759-2.371-12.18-2.371-12.18s6.098 13.366 10.729 19.822c4.63 6.456 12.875 15.93 12.875 15.93l-4.744 3.947z" fill="#004CA0"/><path d="M251.843 191.629c-.386-.671-1.414-.322-1.298.444.729 4.833 2.307 16.175 2.245 23.531-.08 9.556.003 13.25.003 13.25h4.983s-.885-19.755-2.01-25.778c-.79-4.223-2.465-8.911-3.923-11.447z" fill="#004CA0"/><path d="M254.56 227.247s3.136-6.585 4.101-14.857c.41-3.517-.322-8.271-1.411-14.615-.527-3.073-.647-5.411-.63-7.032.013-1.225 1.632-1.626 2.232-.557.602 1.072 2.342 4.732 2.784 7.027 1.206 6.264 2.573 9.396 1.528 15.338-1.046 5.942-4.905 15.097-4.905 15.097l-3.699-.401zM259.047 227.648s13.144-28.208 14.055-32.392c.911-4.185 4.009-13.828 4.373-13.283.365.546.911 5.641-1.457 11.463-2.369 5.823-12.482 35.072-12.482 35.072h-4.489" fill="#004CA0"/><path d="M253.12 226.386c-.006.008-.133-.08-.368-.253-.234-.176-.588-.425-1.019-.776a46.971 46.971 0 01-3.532-3.114c-2.869-2.752-6.44-6.994-9.536-12.222-3.102-5.227-5.189-10.339-6.509-14.081a89.504 89.504 0 01-1.456-4.473c-.161-.531-.271-.948-.349-1.23-.076-.282-.111-.431-.102-.434.009-.003.063.141.156.418l.399 1.214c.345 1.054.855 2.577 1.539 4.438 1.365 3.717 3.474 8.799 6.564 14.004 3.082 5.207 6.61 9.447 9.433 12.225a54.91 54.91 0 003.463 3.17c.419.364.762.626.983.817.225.187.34.289.334.297zM254.558 212.854c-.019.001-.06-.294-.118-.828l-.242-2.261c-.208-1.908-.533-4.54-.997-7.431a151.208 151.208 0 00-1.386-7.37l-.479-2.223c-.113-.525-.167-.818-.148-.823.019-.005.108.279.254.797.147.517.342 1.27.567 2.205a101 101 0 012.387 14.826c.079.958.131 1.734.153 2.272.024.537.028.834.009.836zM257.637 189.965c.009-.004.062.12.155.358l.394 1.048c.174.455.374 1.015.564 1.68.196.662.449 1.409.639 2.258l.326 1.327c.11.462.188.95.289 1.452.214 1.001.347 2.087.507 3.227a52.39 52.39 0 01.313 7.475 52.502 52.502 0 01-.848 7.436c-.241 1.126-.451 2.199-.737 3.183-.137.493-.25.975-.393 1.428l-.42 1.299c-.251.834-.557 1.561-.799 2.207-.237.65-.477 1.194-.683 1.635l-.468 1.017c-.11.231-.172.35-.18.346-.009-.004.035-.131.128-.369l.419-1.037c.19-.446.415-.995.637-1.647.228-.65.52-1.379.757-2.213l.401-1.299c.137-.453.244-.933.375-1.425.275-.982.476-2.052.708-3.173.405-2.254.716-4.756.823-7.398a54.597 54.597 0 00-.29-7.435c-.152-1.135-.275-2.217-.479-3.215-.095-.5-.168-.988-.272-1.449l-.307-1.324c-.177-.849-.416-1.597-.596-2.261a24.22 24.22 0 00-.517-1.69l-.344-1.063c-.076-.245-.111-.375-.102-.378zM277.324 182.54c.005.001.002.044-.01.127a75.67 75.67 0 00-.058.366c-.058.321-.131.798-.259 1.404a56.041 56.041 0 01-1.335 5.078c-.654 2.12-1.552 4.604-2.617 7.334-1.06 2.731-2.293 5.706-3.46 8.873-1.185 3.162-2.097 6.248-2.955 9.049-.85 2.803-1.656 5.318-2.436 7.395-.771 2.08-1.514 3.718-2.075 4.824-.269.559-.511.976-.667 1.262l-.184.323a.42.42 0 01-.072.105.475.475 0 01.046-.119l.16-.335c.139-.295.365-.719.619-1.284a54.305 54.305 0 001.987-4.844c.753-2.08 1.538-4.596 2.374-7.402.844-2.803 1.752-5.9 2.94-9.071 1.17-3.175 2.41-6.147 3.482-8.871 1.077-2.721 1.992-5.193 2.669-7.298a66.305 66.305 0 001.417-5.042c.144-.602.234-1.074.31-1.391l.086-.362a.489.489 0 01.038-.121z" fill="#132F36"/><path d="M236.794 176.31c-.829-.822-2.206.037-1.863 1.152a32.18 32.18 0 001.651 4.241c1.807 3.835 7.115 17.594 9.6 25.151 2.484 7.556 5.986 21.654 5.986 21.654l5.305-.859s-4.854-23.164-9.597-31.51c-3.811-6.705-7.623-16.396-11.082-19.829z" fill="#004CA0"/><path d="M247.634 211.58c.018-.006.115.22.273.635.157.416.371 1.022.612 1.779.489 1.512 1.087 3.623 1.689 5.968a219.506 219.506 0 011.451 6.028l.399 1.836c.088.435.128.678.109.682-.018.005-.094-.229-.215-.656l-.486-1.815-1.53-6.005a227.318 227.318 0 00-1.607-5.98l-.525-1.802c-.127-.425-.188-.663-.17-.67zM254.833 228.077a.527.527 0 01-.03-.141l-.061-.417c-.055-.366-.105-.91-.217-1.605a67.674 67.674 0 00-1.112-5.844c-.567-2.448-1.393-5.327-2.484-8.465-1.088-3.139-2.453-6.531-4-10.041-3.122-7.012-6.239-13.232-8.289-17.831a159.065 159.065 0 01-2.365-5.472c-.27-.65-.462-1.162-.597-1.507l-.147-.395a.505.505 0 01-.041-.138.566.566 0 01.067.127l.174.385.644 1.486c.559 1.291 1.388 3.15 2.446 5.432 2.093 4.574 5.239 10.777 8.365 17.8 1.549 3.516 2.91 6.918 3.988 10.07 1.08 3.151 1.889 6.045 2.432 8.505.547 2.459.866 4.475 1.027 5.874.096.698.128 1.245.166 1.613l.032.42a.604.604 0 01.002.144zM257.473 227.649c-.019.003-.082-.315-.179-.89l-.413-2.436c-.366-2.053-.924-4.88-1.726-7.958a97.854 97.854 0 00-2.379-7.789l-.83-2.327c-.198-.549-.3-.856-.282-.863.018-.007.154.286.384.823.229.538.548 1.321.915 2.3a76.803 76.803 0 012.463 7.786 80.552 80.552 0 011.651 7.996c.151 1.034.267 1.871.325 2.453.064.58.09.903.071.905z" fill="#132F36"/><path d="M268.363 226.888h-20.71v25.198h20.71v-25.198z" fill="#FF6753"/><path d="M268.363 226.888h-20.71v25.198h20.71v-25.198z" fill="#11A7B6"/><path d="M261.757 226.888h-18.374v25.198h18.374v-25.198z" fill="#0DC9DB"/><path d="M129.371 248.741c-2.33.74-4.439 1.267-6.361 1.613-.007.007-.02.007-.034.007-.334.06-.661.113-.981.16a31.137 31.137 0 01-2.937.3c-14.338.727-14.705-11.219-15.059-17.305-.387-6.713-.174-15.425.607-24.424.988-11.292 2.871-23.031 5.607-31.81 3.952-12.665 10.347-14.045 15.814-14.152l.006-.006c1.055-.02 2.083.006 3.044.006 0 0-.694 3.587-1.028 7.053l-2.163 15.338-3.003 21.298v.013l-.468 3.32-.026.187-1.629 11.525-.374 2.653c-.173 1.767-.3 4.26 1.636 5.686.253.193.547.367.887.513 1.262.56 3.118.794 5.821.474l.274 7.559.053 1.366.087 2.353.153 4.273.074 2z" fill="#FFB162"/><path d="M96.782 204.78c4.103 4.687 7.418 4.115 13.081 4.999 5.663.885 10.565.583 16.316.058 1.164-15.929 3.126-31.82 2.963-47.729-4.654.351-9.639.157-13.447 2.466-5.085 3.082-5.423 11.006-8.846 16.596-4.042 6.598-9.227 12.003-14.361 17.343 1.85 3.254 1.932 3.568 4.294 6.267z" fill="#007BFF"/><path d="M96.782 204.78c4.103 4.687 7.418 4.115 13.081 4.999 5.663.885 10.565.583 16.316.058 1.164-15.929 3.126-31.82 2.963-47.729-4.654.351-9.639.157-13.447 2.466-5.085 3.082-5.423 11.006-8.846 16.596-4.042 6.598-9.227 12.003-14.361 17.343 1.85 3.254 1.932 3.568 4.294 6.267z" fill="#004CA0"/><path opacity=".2" d="M125.886 185.518l-7.912 24.822h9.991l-2.079-24.822z" fill="#000"/><path d="M202.324 213.818c-.908 4.073-2.003 8.06-3.111 13.139v.013a167.642 167.642 0 00-1.696 8.859v.007c-.36 2.2-.707 4.586-1.041 7.219a242.33 242.33 0 00-.828 7.413v.006a296.584 296.584 0 00-.333 3.62c-.207 2.447-.408 5.06-.581 7.853a453.39 453.39 0 00-.494 9.119c-2.417-.06-73.787 0-73.787 0 .394-4.74.748-9.206 1.062-13.506.173-2.393.34-4.732.48-7.039.007-.02.007-.04.007-.053.046-.707.093-1.407.133-2.1.107-1.76.207-3.5.294-5.233.214-4.139.38-8.239.481-12.418.006-.18.013-.354.013-.534.06-2.573.1-5.186.113-7.852.034-3.846.007-7.819-.08-11.992 0-.074 0-.153-.006-.227-.014-1.08-.04-2.173-.067-3.279v-.014a699.327 699.327 0 00-.374-10.692v-.007c-.2-4.659-.461-9.592-.781-14.898-.387-6.253.053-14.558 4.299-18.091l.007-.007a6.99 6.99 0 011.375-.9 7.482 7.482 0 012.316-.72l22.408-3.486 7.817-1.213 11.514 2.253 25.259 4.953c.307.06.607.133.894.226 1.716.513 3.058 1.473 4.079 2.84 2.603 3.48 3.144 9.619 2.63 17.871.601 14.212-.401 21.671-2.002 28.87z" fill="#007BFF"/><path d="M202.324 213.818c-.908 4.073-2.003 8.06-3.111 13.139v.013a167.642 167.642 0 00-1.696 8.859v.007c-.36 2.2-.707 4.586-1.041 7.219a242.33 242.33 0 00-.828 7.413v.006a296.584 296.584 0 00-.333 3.62c-.207 2.447-.408 5.06-.581 7.853a453.39 453.39 0 00-.494 9.119c-2.417-.06-73.787 0-73.787 0 .394-4.74.748-9.206 1.062-13.506.173-2.393.34-4.732.48-7.039.007-.02.007-.04.007-.053.046-.707.093-1.407.133-2.1.107-1.76.207-3.5.294-5.233.214-4.139.38-8.239.481-12.418.006-.18.013-.354.013-.534.06-2.573.1-5.186.113-7.852.034-3.846.007-7.819-.08-11.992 0-.074 0-.153-.006-.227-.014-1.08-.04-2.173-.067-3.279v-.014a699.327 699.327 0 00-.374-10.692v-.007c-.2-4.659-.461-9.592-.781-14.898-.387-6.253.053-14.558 4.299-18.091l.007-.007a6.99 6.99 0 011.375-.9 7.482 7.482 0 012.316-.72l22.408-3.486 7.817-1.213 11.514 2.253 25.259 4.953c.307.06.607.133.894.226 1.716.513 3.058 1.473 4.079 2.84 2.603 3.48 3.144 9.619 2.63 17.871.601 14.212-.401 21.671-2.002 28.87z" fill="#004CA0"/><path d="M172.464 160.33c4.488 3.194 2.581 8.218-1.079 12.322-7.623 8.545-15.525 11.198-15.525 11.198-.118-.049-19.799-14.252-5.892-23.14 2.302-1.483 3.198-4.965 3.451-8.612.2-3.05-.046-6.182-.336-8.338a22.342 22.342 0 00-.299-2.022 18.67 18.67 0 00-.404-1.899l20.871-8.6c-2.293 3.45-4.04 14.501-3.554 18.055.537 3.99.69 9.558 2.767 11.036z" fill="#FFB162"/><path opacity=".2" d="M153.419 152.098c.2-3.05-.045-6.183-.335-8.339a22.678 22.678 0 00-.299-2.021l16.142-3.092c-3.388 3.376-8.132 10.228-15.508 13.452z" fill="#000"/><path d="M131.539 115.594c.527 3.463 5.44 9.094 5.208 8.753-.232-.341-.231-.785-.202-1.197a12.767 12.767 0 011.179-4.514c.412 1.934 1.046 5.939 3.026 5.969.787-1.43 1.753-2.734 1.62-4.36.456 1.664.873 3.338 1.33 5.003 3.843-2.287 6.277-7.555 5.481-11.952-.192-1.064-.547-2.109-1.131-3.02-.67-1.042-1.614-1.875-2.56-2.676-2.508-2.121-5.694-3.858-8.859-2.971-6.061 1.699-5.619 7.501-5.092 10.965z" fill="#132F36"/><path d="M135.735 131.686c2.592 14.107 19.502 21.545 30.665 11.439 6.448-5.82 7.473-12.767 8.649-23.596.187-1.644.37-3.369.581-5.209a19.43 19.43 0 00-.862-8.48 17.439 17.439 0 00-1.459-3.269c-4.424-7.942-14.001-11.855-22.934-8.848-13.997 4.708-16.989 25.267-14.64 37.963z" fill="#FFB162"/><path d="M152.495 116.498a.614.614 0 01-.254-.194.654.654 0 01.129-.917l.026-.019a6.477 6.477 0 015.917-1.003.655.655 0 01.349.876.674.674 0 01-.866.371 5.071 5.071 0 00-4.696.803.621.621 0 01-.605.083zM139.326 114.579a.611.611 0 01-.253-.194.653.653 0 01.129-.917l.026-.019a6.476 6.476 0 015.917-1.003.655.655 0 01.349.876.675.675 0 01-.866.371 5.076 5.076 0 00-4.697.803.62.62 0 01-.605.083zM155.292 133.804a9.826 9.826 0 01-7.401 1.932.354.354 0 01-.312-.363.32.32 0 01.35-.3 9.382 9.382 0 007.853-2.574.32.32 0 01.477.011.353.353 0 01-.011.476c-.303.291-.622.564-.956.818zM167.674 140.102a11.458 11.458 0 004.722-2.068c.02 1.873 1.261 5.084 1.261 5.084 5.962-1.96 10.873-13.878 11.531-17.827 3.322 6.157 3.03 2.618 3.287.004.37-3.762.465-7.659-.822-11.214-1.287-3.555-4.219-6.724-7.954-7.339-1.294-.212-2.889.587-3.59 1.692-.701 1.106-.995 2.416-1.233 3.703-1.733 9.339-1.658 20.247-7.202 27.965z" fill="#132F36"/><path d="M176.136 118.691c-4.566.1-7.353 5.849-7.836 9.781-.571 4.376 2.373 7.976 6.605 6.04a13.08 13.08 0 006.818-7.483c1.41-4.067-1.022-8.437-5.587-8.338z" fill="#FFB162"/><path opacity=".2" d="M188.797 191.263s-5.54 25.048-1.7 40.161c3.841 15.114 11.52 22.733 11.52 22.733l1.372-62.894h-11.192z" fill="#000"/><path opacity=".2" d="M198.619 254.154v.013a6.463 6.463 0 01-3.304-.073c-.207 2.447-.408 5.06-.581 7.853-4.413 2.359-24.064-4.573-41.306-11.493a643.468 643.468 0 01-10.854-4.479c-1.195-.5-2.342-.993-3.451-1.467a710.283 710.283 0 01-6.201-2.686 390.45 390.45 0 01-3.865-1.706c-2.256-1-3.557-1.594-3.557-1.594l3.504.227 27.702 1.767 7.149.459 1.435.087 8.851.567 6.048.386.313.02 5.861.38 4.78.3 5.333.34 2.143.14s.12 1.467.153 3.96v.093c.027 1.82 0 4.18-.153 6.906z" fill="#000"/><path d="M210.013 213.918c-1.094 11.572-2.71 22.998-4.045 30.503-.928 5.22-3.885 8.9-7.349 9.746a6.474 6.474 0 01-3.304-.073 6.705 6.705 0 01-.481-.154l-26.52-6.832-.227-.06-2.844-.733.047-5.253.007-.427.013-2.073.06-6.566 3.585.193 17.522.934c.367.1.734.113 1.088.04 1.522-.287 2.777-2.06 2.937-4.4l.34-5.073.748-11.192 1.428-21.237 1.315-19.665c.221-3.313.928-6.053.995-6.293v-.013h.013c1.295 0 3.752.393 6.355 1.787 4.125 2.206 8.604 6.932 9.332 16.591.601 8.026.033 19.198-1.015 30.25z" fill="#FFB162"/><path d="M178.196 249.008l-38.924-7.497a7.014 7.014 0 00-3.278-.218l-10.969 1.883a7.004 7.004 0 01-6.437-2.267l-5.185-5.869a7.014 7.014 0 01.81-10.067l1.857-1.523a7.01 7.01 0 018.624-.206 7 7 0 004.392 1.38l.649-.019a7.006 7.006 0 016.777 4.552l.604 1.616 31.732 1.219 9.348 17.016z" fill="#FFB162"/><path opacity=".1" d="M131.54 231.713c1.86-.363 3.72-.658 5.569-.958l-.597-1.598a7.006 7.006 0 00-6.777-4.552l-.649.019a7 7 0 01-4.392-1.38 7.01 7.01 0 00-8.624.206l-1.857 1.523c-2.534 2.077-3.223 5.546-1.915 8.37 3.554.327 16.288-1.054 19.242-1.63z" fill="#000"/><path opacity=".2" d="M190.395 241.041c0 .007-.007.007-.007.007-.661.327-2.056.793-4.025 1.367h-.007c-2.583.746-6.148 1.673-10.299 2.706-2.477.613-5.16 1.26-7.971 1.926-.013.007-.02.007-.033.007a1619.614 1619.614 0 01-14.625 3.4 3609.823 3609.823 0 01-31.914 7.106c.174-2.394.34-4.733.481-7.04a30.52 30.52 0 01-2.937.3l.026-.18.234-1.633 2.817-.64 7.162-1.626 9.826-2.233 7.203-1.634 10.379-2.359 8.604-1.953 6.355-1.447 4.766-1.08s8.691.9 12.87 2.36c2.156.746 3.117 1.646 1.095 2.646z" fill="#000"/><path d="M108.638 230.449l59.734-1.103a7.016 7.016 0 003.122-1.025l9.462-5.852a7.004 7.004 0 016.816-.31l7.012 3.501c3.559 1.778 4.933 6.148 3.028 9.637l-1.15 2.107a7.003 7.003 0 01-7.917 3.419c-1.527-.398-11.143 1.16-13.17-1.051l-1.173-1.278-47.518 11.168a37.08 37.08 0 01-10.293.939l-7.953-20.152z" fill="#FFB162"/><path d="M225.867 210.534a12.91 12.91 0 01-5.473 2.27c-12.88 2.133-21.032 1.051-31.412-.748-1.834-17.199-1.372-30.513 1.935-40.1 1.103-3.197 4.255-7.851 7.639-7.71 14.349.599 16.791 15.015 18.426 21.664 3.604 14.66 8.885 24.624 8.885 24.624z" fill="#007BFF"/><path d="M225.867 210.534a12.91 12.91 0 01-5.473 2.27c-12.88 2.133-21.032 1.051-31.412-.748-1.834-17.199-1.372-30.513 1.935-40.1 1.103-3.197 4.255-7.851 7.639-7.71 14.349.599 16.791 15.015 18.426 21.664 3.604 14.66 8.885 24.624 8.885 24.624z" fill="#004CA0"/><path d="M164.539 111.851c1.764-4.561 4.357-6.843 2.829-6.532-4.151.847-6.874-2.739-9.847-.497-1.417 1.799.451 4.939.515 4.763-1.5.806-3.441.316-4.754-.768-1.313-1.084-1.844-3.048-2.539-4.601-.405 1.571-.233 3.757.363 5.267-1.063.938-3.405-.626-4.483-1.547-1.079-.92-1.878-2.508-2.413-3.82-.317 1.571-.557 3.175.634 4.996-1.56.159-3.633-.236-4.712-1.372-1.079-1.137-1.785-2.957-1.543-4.504-.316.815-.22 4.106.504 4.597-2.723-.767-5.339-4.039-5.327-6.865.011-2.825 1.697-5.494 4.045-7.07 1.162-.78 2.466-1.317 3.689-1.997 1.887-1.048 13.717-10.89 32.187-1.138 11.466 6.052 9.885 19.224 8.621 20.697-1.568 1.827-4.141 2.537-6.546 2.405-2.406-.131-11.689-.809-11.223-2.014z" fill="#132F36"/><path d="M166.993 105.283c-2.409 2.546-3.561 6.226-3.034 9.69.527 3.463 5.44 9.094 5.208 8.753-.232-.341-.232-.785-.202-1.197.111-1.56.513-3.099 1.179-4.514.412 1.934 1.046 5.939 3.026 5.968.786-1.429 1.753-2.733 1.619-4.359.457 1.664.874 3.338 1.331 5.002 3.843-2.286 6.277-7.554 5.481-11.951-.193-1.065-.547-2.11-1.132-3.02-.669-1.043-1.613-1.875-2.56-2.676-2.507-2.122-5.827-4.24-8.858-2.972-.44.185-2.177.814-2.058 1.276zM157.286 119.328c-.006 1.152-.618 2.08-1.362 2.099-.744.019-1.344-.89-1.405-2.074-.06-1.183.619-2.08 1.363-2.099.744-.019 1.407.938 1.404 2.074zM142.621 119.328c-.006 1.152-.619 2.08-1.362 2.099-.744.019-1.345-.89-1.405-2.074-.06-1.183.618-2.08 1.362-2.099.744-.019 1.408.938 1.405 2.074z" fill="#132F36"/><path d="M147.991 129.018c-.946.059-2.622.468-2.658-.942-.027-1.069.196-2.192.367-3.241.086-.524-.717-.749-.804-.221a35.82 35.82 0 00-.35 2.709c-.05.581-.121 1.217.136 1.764.579 1.234 2.233.831 3.309.763.533-.034.537-.866 0-.832z" fill="#CA874A"/></g><path fill="#fff" d="M43.071 254.33h308.987v145.866H43.071z"/><path d="M351.406 254.254H44.594a1.33 1.33 0 110-2.657h306.812a1.33 1.33 0 011.331 1.328 1.33 1.33 0 01-1.331 1.329z" fill="#76A8EE"/><g clip-path="url(#clip2)"><path d="M130.252 295.484h-6.221l-.764 2.266h-4.2l5.638-14.96h4.851l5.659 14.96h-4.199l-.764-2.266zm-5.211-3.251h4.201l-2.112-6.079-2.089 6.079zM142.679 291.493c0-1.324-.696-1.795-1.774-1.795-1.033 0-1.707.561-2.111 1.055v6.997h-3.459v-10.833h3.459v1.323c.651-.762 1.932-1.592 3.751-1.592 2.47 0 3.593 1.436 3.593 3.432v7.67h-3.459v-6.257zM157.67 286.648c3.211 0 5.548 2.355 5.548 6.033v.74h-7.726c.202 1.01 1.145 1.929 2.762 1.929.966 0 2.044-.381 2.65-.919l1.46 2.153c-1.078.964-2.874 1.436-4.537 1.436-3.346 0-5.929-2.176-5.929-5.697 0-3.141 2.381-5.675 5.772-5.675zm-2.224 4.53h4.47c-.09-.762-.651-1.861-2.246-1.861-1.505 0-2.088 1.076-2.224 1.861zM177.709 291.157c0-.831-.404-1.459-1.437-1.459-.944 0-1.617.606-1.954 1.055v6.997h-3.459v-6.593c0-.831-.381-1.459-1.437-1.459-.921 0-1.572.606-1.932 1.055v6.997h-3.458v-10.833h3.458v1.323c.472-.627 1.865-1.592 3.572-1.592 1.549 0 2.627.651 3.077 1.929.628-.942 2.043-1.929 3.751-1.929 1.998 0 3.256 1.031 3.256 3.252v7.85h-3.437v-6.593zM182.795 301.877v-14.96h3.459v1.256c.853-1.031 1.977-1.525 3.212-1.525 2.718 0 4.761 2.018 4.761 5.675 0 3.678-2.043 5.697-4.761 5.697-1.213 0-2.313-.472-3.212-1.548v5.405h-3.459zm5.526-12.179c-.742 0-1.64.404-2.067.987v3.297c.427.561 1.325.987 2.067.987 1.347 0 2.38-1.009 2.38-2.646 0-1.616-1.033-2.625-2.38-2.625zM194.437 292.323c0-3.051 2.222-5.675 5.905-5.675 3.729 0 5.931 2.624 5.931 5.675 0 3.049-2.202 5.697-5.931 5.697-3.683 0-5.905-2.648-5.905-5.697zm8.286 0c0-1.436-.852-2.625-2.381-2.625-1.503 0-2.335 1.189-2.335 2.625 0 1.457.832 2.646 2.335 2.646 1.529 0 2.381-1.189 2.381-2.646zM214.767 291.044l-2.021 6.706h-3.729l-3.211-10.833h3.55l1.75 6.639 2.134-6.639h3.078l2.132 6.639 1.73-6.639h3.572l-3.212 10.833h-3.728l-2.045-6.706zM229.039 286.648c3.211 0 5.546 2.355 5.546 6.033v.74h-7.724c.201 1.01 1.144 1.929 2.761 1.929.966 0 2.045-.381 2.65-.919l1.461 2.153c-1.079.964-2.875 1.436-4.537 1.436-3.347 0-5.929-2.176-5.929-5.697 0-3.141 2.379-5.675 5.772-5.675zm-2.224 4.53h4.469c-.089-.762-.651-1.861-2.245-1.861-1.505 0-2.089 1.076-2.224 1.861zM235.401 286.917h3.458v1.369c.719-.875 2.089-1.638 3.392-1.638v3.342a2.813 2.813 0 00-.854-.112c-.898 0-2.088.381-2.538 1.009v6.863h-3.458v-10.833zM242.681 283.576c0-1.1.876-1.974 1.977-1.974 1.099 0 1.975.874 1.975 1.974a1.963 1.963 0 01-1.975 1.973 1.964 1.964 0 01-1.977-1.973zm.247 3.341h3.458v10.833h-3.458v-10.833zM255.351 291.493c0-1.324-.697-1.795-1.774-1.795-1.033 0-1.708.561-2.112 1.055v6.997h-3.458v-10.833h3.458v1.323c.651-.762 1.933-1.592 3.751-1.592 2.47 0 3.593 1.436 3.593 3.432v7.67h-3.458v-6.257zM261.647 298.064c.831.897 2.043 1.256 3.301 1.256 1.145 0 2.764-.47 2.764-2.489v-.83c-.9 1.054-1.977 1.569-3.213 1.569-2.65 0-4.783-1.816-4.783-5.472 0-3.566 2.065-5.45 4.783-5.45 1.214 0 2.337.471 3.213 1.547v-1.278h3.436v9.869c0 4.419-3.504 5.36-6.2 5.36-1.863 0-3.414-.471-4.806-1.614l1.505-2.468zm6.065-7.401c-.428-.583-1.348-.965-2.067-.965-1.37 0-2.381.83-2.381 2.4 0 1.592 1.011 2.422 2.381 2.422.719 0 1.639-.381 2.067-.964v-2.893zM94.434 318.89c-.674.763-1.932 1.57-3.75 1.57-2.471 0-3.571-1.39-3.571-3.386v-7.716h3.458v6.303c0 1.301.674 1.749 1.797 1.749.988 0 1.662-.538 2.066-1.053v-6.999h3.46v10.834h-3.46v-1.302zM106.86 313.933c0-1.323-.695-1.794-1.773-1.794-1.034 0-1.708.56-2.112 1.054v6.998h-3.458v-10.834h3.458v1.323c.651-.762 1.931-1.591 3.751-1.591 2.471 0 3.594 1.435 3.594 3.431v7.671h-3.46v-6.258zM119.242 318.935c-.898 1.031-1.998 1.525-3.211 1.525-2.673 0-4.806-2.018-4.806-5.696 0-3.544 2.089-5.675 4.806-5.675 1.191 0 2.335.471 3.211 1.547v-5.405h3.437v14.96h-3.437v-1.256zm0-5.832c-.449-.582-1.347-.964-2.088-.964-1.37 0-2.381 1.009-2.381 2.625 0 1.614 1.011 2.646 2.381 2.646.741 0 1.639-.404 2.088-.987v-3.32zM129.378 309.089c3.212 0 5.547 2.355 5.547 6.033v.739h-7.726c.203 1.01 1.146 1.93 2.763 1.93.966 0 2.044-.382 2.65-.92l1.46 2.153c-1.078.964-2.874 1.435-4.537 1.435-3.346 0-5.93-2.175-5.93-5.696 0-3.14 2.382-5.674 5.773-5.674zm-2.224 4.53h4.47c-.09-.763-.651-1.861-2.246-1.861-1.505 0-2.089 1.076-2.224 1.861zM135.739 309.357h3.459v1.369c.719-.875 2.089-1.637 3.392-1.637v3.341a2.815 2.815 0 00-.853-.111c-.899 0-2.09.38-2.539 1.009v6.863h-3.459v-10.834zM143.784 316.422c.809.718 2.538 1.435 3.819 1.435 1.033 0 1.46-.336 1.46-.807 0-.56-.742-.762-1.865-.941-1.841-.314-4.446-.696-4.446-3.454 0-1.907 1.639-3.566 4.648-3.566 1.82 0 3.369.582 4.538 1.435l-1.326 2.288c-.651-.629-1.887-1.189-3.189-1.189-.809 0-1.37.269-1.37.74 0 .493.584.673 1.73.875 1.841.313 4.581.763 4.581 3.633 0 2.063-1.819 3.588-4.941 3.588-1.932 0-3.931-.65-5.076-1.66l1.437-2.377zM153.965 317.275v-4.912h-1.798v-3.006h1.798v-2.961h3.436v2.961h2.201v3.006h-2.201v3.947c0 .628.359 1.099.965 1.099.382 0 .764-.134.876-.27l.674 2.602c-.427.403-1.281.718-2.561.718-2.201 0-3.39-1.1-3.39-3.184z" fill="#F38E1C"/><path d="M166.837 319.113c-.674.807-1.977 1.346-3.369 1.346-1.662 0-3.728-1.121-3.728-3.566 0-2.624 2.066-3.408 3.728-3.408 1.437 0 2.718.448 3.369 1.255v-1.368c0-.942-.808-1.569-2.201-1.569a4.843 4.843 0 00-3.077 1.143l-1.235-2.175c1.393-1.189 3.256-1.682 4.918-1.682 2.606 0 5.053.964 5.053 4.328v6.774h-3.458v-1.078zm0-2.668c-.359-.493-1.168-.762-1.932-.762-.921 0-1.729.403-1.729 1.255 0 .853.808 1.257 1.729 1.257.764 0 1.573-.271 1.932-.786v-.964zM179.263 313.933c0-1.323-.696-1.794-1.774-1.794-1.033 0-1.707.56-2.111 1.054v6.998h-3.459v-10.834h3.459v1.323c.651-.762 1.931-1.591 3.75-1.591 2.471 0 3.594 1.435 3.594 3.431v7.671h-3.459v-6.258zM191.644 318.935c-.898 1.031-1.999 1.525-3.211 1.525-2.673 0-4.806-2.018-4.806-5.696 0-3.544 2.088-5.675 4.806-5.675 1.19 0 2.335.471 3.211 1.547v-5.405h3.436v14.96h-3.436v-1.256zm0-5.832c-.449-.582-1.347-.964-2.088-.964-1.37 0-2.381 1.009-2.381 2.625 0 1.614 1.011 2.646 2.381 2.646.741 0 1.639-.404 2.088-.987v-3.32zM196.479 306.017c0-1.099.876-1.974 1.977-1.974 1.099 0 1.975.875 1.975 1.974a1.963 1.963 0 01-1.975 1.973 1.963 1.963 0 01-1.977-1.973zm.247 3.341h3.459v10.834h-3.459v-10.834zM209.149 313.933c0-1.323-.696-1.794-1.773-1.794-1.034 0-1.708.56-2.113 1.054v6.998h-3.458v-10.834h3.458v1.323c.651-.762 1.933-1.591 3.751-1.591 2.471 0 3.594 1.435 3.594 3.431v7.671h-3.459v-6.258zM215.446 320.505c.83.896 2.043 1.254 3.301 1.254 1.145 0 2.763-.469 2.763-2.489v-.829c-.9 1.054-1.977 1.569-3.213 1.569-2.65 0-4.782-1.815-4.782-5.472 0-3.565 2.064-5.449 4.782-5.449 1.214 0 2.337.47 3.213 1.547v-1.279h3.436v9.869c0 4.418-3.504 5.36-6.199 5.36-1.864 0-3.415-.471-4.806-1.614l1.505-2.467zm6.064-7.402c-.428-.583-1.348-.964-2.067-.964-1.369 0-2.381.83-2.381 2.399 0 1.593 1.012 2.423 2.381 2.423.719 0 1.639-.382 2.067-.964v-2.894zM230.727 314.763c0-3.051 2.223-5.674 5.906-5.674 3.729 0 5.929 2.623 5.929 5.674 0 3.05-2.2 5.696-5.929 5.696-3.683 0-5.906-2.646-5.906-5.696zm8.287 0c0-1.435-.854-2.624-2.381-2.624-1.505 0-2.335 1.189-2.335 2.624 0 1.457.83 2.646 2.335 2.646 1.527 0 2.381-1.189 2.381-2.646zM244.23 312.364h-1.795v-3.006h1.795v-.538c0-2.31 1.641-3.813 3.887-3.813.943 0 1.751.202 2.291.494l-.629 2.355a1.788 1.788 0 00-.898-.225c-.719 0-1.191.448-1.191 1.279v.448h2.2v3.006h-2.2v7.827h-3.46v-7.827zM255.376 305.231h3.865v14.96h-3.865v-14.96zM261.466 316.422c.809.718 2.539 1.435 3.819 1.435 1.033 0 1.459-.336 1.459-.807 0-.56-.741-.762-1.863-.941-1.842-.314-4.448-.696-4.448-3.454 0-1.907 1.64-3.566 4.649-3.566 1.819 0 3.368.582 4.537 1.435l-1.326 2.288c-.651-.629-1.885-1.189-3.188-1.189-.81 0-1.371.269-1.371.74 0 .493.585.673 1.73.875 1.841.313 4.581.763 4.581 3.633 0 2.063-1.818 3.588-4.94 3.588-1.933 0-3.931-.65-5.076-1.66l1.437-2.377zM270.928 305.231h3.458v14.96h-3.458v-14.96zM282.407 319.113c-.674.807-1.976 1.346-3.37 1.346-1.66 0-3.727-1.121-3.727-3.566 0-2.624 2.067-3.408 3.727-3.408 1.437 0 2.719.448 3.37 1.255v-1.368c0-.942-.808-1.569-2.201-1.569a4.84 4.84 0 00-3.076 1.143l-1.237-2.175c1.394-1.189 3.257-1.682 4.92-1.682 2.604 0 5.053.964 5.053 4.328v6.774h-3.459v-1.078zm0-2.668c-.36-.493-1.168-.762-1.933-.762-.919 0-1.728.403-1.728 1.255 0 .853.809 1.257 1.728 1.257.765 0 1.573-.271 1.933-.786v-.964zM301.167 313.597c0-.83-.405-1.458-1.438-1.458-.944 0-1.617.605-1.955 1.054v6.998h-3.458v-6.594c0-.83-.382-1.458-1.437-1.458-.922 0-1.573.605-1.932 1.054v6.998h-3.458v-10.834h3.458v1.323c.472-.627 1.864-1.591 3.572-1.591 1.549 0 2.626.65 3.076 1.928.629-.942 2.045-1.928 3.751-1.928 1.999 0 3.257 1.031 3.257 3.251v7.851h-3.436v-6.594z" fill="#F38E1C"/><path d="M65.55 327.672h1.685v5.763c.876-1.187 2.179-1.904 3.661-1.904 2.83 0 4.83 2.242 4.83 5.696 0 3.521-2 5.674-4.83 5.674-1.527 0-2.852-.785-3.66-1.885v1.616H65.55v-14.96zm4.92 13.726c2.201 0 3.503-1.772 3.503-4.171 0-2.4-1.302-4.195-3.504-4.195-1.325 0-2.65.807-3.234 1.749v4.913c.584.942 1.91 1.704 3.234 1.704zM84.896 341.107c-.832.941-2.247 1.794-3.864 1.794-2.268 0-3.459-1.1-3.459-3.454v-7.648h1.684v7.131c0 1.907.967 2.468 2.426 2.468 1.325 0 2.583-.762 3.213-1.637v-7.962h1.684v10.833h-1.684v-1.525zM88.764 328.838c0-.628.517-1.121 1.123-1.121.63 0 1.146.493 1.146 1.121s-.517 1.143-1.146 1.143c-.606 0-1.123-.515-1.123-1.143zm.292 2.96h1.684v10.834h-1.684v-10.834zM93.213 327.672h1.685v14.96h-1.685v-14.96zM105.231 341.016c-.808 1.1-2.133 1.885-3.661 1.885-2.83 0-4.829-2.153-4.829-5.674 0-3.454 1.977-5.696 4.829-5.696 1.46 0 2.785.717 3.661 1.904v-5.763h1.684v14.96h-1.684v-1.616zm0-6.235c-.606-.942-1.909-1.749-3.256-1.749-2.179 0-3.482 1.795-3.482 4.195 0 2.399 1.303 4.171 3.482 4.171 1.347 0 2.65-.762 3.256-1.704v-4.913zM109.325 339.986c.718.829 2.089 1.547 3.571 1.547 1.663 0 2.561-.74 2.561-1.796 0-1.187-1.325-1.568-2.786-1.928-1.841-.426-3.93-.919-3.93-3.161 0-1.682 1.46-3.118 4.043-3.118 1.841 0 3.144.694 4.02 1.569l-.786 1.167c-.651-.785-1.842-1.368-3.234-1.368-1.482 0-2.403.672-2.403 1.636 0 1.054 1.235 1.392 2.65 1.728 1.887.426 4.065.964 4.065 3.364 0 1.817-1.459 3.274-4.267 3.274-1.774 0-3.279-.538-4.379-1.703l.875-1.211zM128.626 331.53c1.976 0 3.144.807 3.975 1.883l-1.124 1.032c-.718-.986-1.639-1.414-2.762-1.414-2.313 0-3.751 1.774-3.751 4.173 0 2.4 1.438 4.193 3.751 4.193 1.123 0 2.044-.447 2.762-1.411l1.124 1.03c-.831 1.077-1.999 1.884-3.975 1.884-3.235 0-5.414-2.467-5.414-5.696 0-3.208 2.179-5.674 5.414-5.674zM133.437 337.204c0-3.141 2.067-5.674 5.368-5.674 3.302 0 5.368 2.533 5.368 5.674 0 3.14-2.066 5.696-5.368 5.696-3.301 0-5.368-2.556-5.368-5.696zm8.962 0c0-2.198-1.28-4.173-3.594-4.173-2.313 0-3.616 1.975-3.616 4.173 0 2.221 1.303 4.193 3.616 4.193 2.314 0 3.594-1.972 3.594-4.193zM153.343 335.544c0-1.906-.967-2.513-2.426-2.513-1.325 0-2.583.808-3.212 1.682v7.919h-1.684v-10.833h1.684v1.57c.764-.898 2.246-1.839 3.863-1.839 2.269 0 3.459 1.144 3.459 3.498v7.604h-1.684v-7.088zM157.976 333.277h-1.797v-1.479h1.797v-.831c0-2.242 1.257-3.521 3.144-3.521.63 0 1.213.114 1.64.382l-.427 1.278a1.702 1.702 0 00-.966-.268c-1.101 0-1.707.761-1.707 2.129v.831h2.201v1.479h-2.201v9.355h-1.684v-9.355zm5.592-4.439c0-.628.517-1.121 1.123-1.121a1.13 1.13 0 011.146 1.121 1.15 1.15 0 01-1.146 1.143c-.606 0-1.123-.515-1.123-1.143zm.292 2.96h1.685v10.834h-1.685v-10.834zM175.904 341.016c-.809 1.1-2.134 1.885-3.662 1.885-2.83 0-4.828-2.153-4.828-5.674 0-3.454 1.976-5.696 4.828-5.696 1.461 0 2.786.717 3.662 1.904v-5.763h1.684v14.96h-1.684v-1.616zm0-6.235c-.607-.942-1.91-1.749-3.257-1.749-2.178 0-3.481 1.795-3.481 4.195 0 2.399 1.303 4.171 3.481 4.171 1.347 0 2.65-.762 3.257-1.704v-4.913zM184.782 331.53c3.279 0 5.211 2.557 5.211 5.808v.427h-8.782c.135 2.04 1.572 3.746 3.908 3.746 1.236 0 2.493-.495 3.347-1.368l.808 1.097c-1.078 1.078-2.538 1.66-4.312 1.66-3.212 0-5.525-2.31-5.525-5.696 0-3.141 2.246-5.674 5.345-5.674zm-3.571 5.001h7.12c-.022-1.615-1.1-3.611-3.571-3.611-2.313 0-3.459 1.95-3.549 3.611zM199.139 335.544c0-1.906-.966-2.513-2.425-2.513-1.326 0-2.583.808-3.212 1.682v7.919h-1.685v-10.833h1.685v1.57c.763-.898 2.246-1.839 3.863-1.839 2.268 0 3.458 1.144 3.458 3.498v7.604h-1.684v-7.088zM208.085 331.53c1.977 0 3.144.807 3.976 1.883l-1.125 1.032c-.719-.986-1.639-1.414-2.761-1.414-2.314 0-3.751 1.774-3.751 4.173 0 2.4 1.437 4.193 3.751 4.193 1.122 0 2.042-.447 2.761-1.411l1.125 1.03c-.832 1.077-1.999 1.884-3.976 1.884-3.235 0-5.413-2.467-5.413-5.696 0-3.208 2.178-5.674 5.413-5.674zM218.242 331.53c3.279 0 5.21 2.557 5.21 5.808v.427h-8.782c.136 2.04 1.573 3.746 3.908 3.746 1.237 0 2.493-.495 3.347-1.368l.808 1.097c-1.077 1.078-2.538 1.66-4.312 1.66-3.211 0-5.525-2.31-5.525-5.696 0-3.141 2.246-5.674 5.346-5.674zm-3.572 5.001h7.12c-.022-1.615-1.099-3.611-3.57-3.611-2.313 0-3.46 1.95-3.55 3.611zM229.884 328.838c0-.628.517-1.121 1.123-1.121a1.13 1.13 0 011.146 1.121 1.15 1.15 0 01-1.146 1.143c-.606 0-1.123-.515-1.123-1.143zm.292 2.96h1.685v10.834h-1.685v-10.834zM241.655 335.544c0-1.906-.967-2.513-2.426-2.513-1.324 0-2.583.808-3.212 1.682v7.919h-1.684v-10.833h1.684v1.57c.765-.898 2.246-1.839 3.863-1.839 2.269 0 3.46 1.144 3.46 3.498v7.604h-1.685v-7.088zM251.052 340.365v-7.088h-1.796v-1.479h1.796v-2.96h1.684v2.96h2.202v1.479h-2.202v6.73c0 .807.36 1.39 1.101 1.39.472 0 .92-.201 1.145-.447l.493 1.254c-.426.404-1.031.696-2.02.696-1.595 0-2.403-.919-2.403-2.535zM261.139 331.53c3.279 0 5.21 2.557 5.21 5.808v.427h-8.782c.136 2.04 1.573 3.746 3.908 3.746 1.237 0 2.493-.495 3.347-1.368l.808 1.097c-1.077 1.078-2.538 1.66-4.312 1.66-3.211 0-5.525-2.31-5.525-5.696 0-3.141 2.246-5.674 5.346-5.674zm-3.572 5.001h7.12c-.022-1.615-1.099-3.611-3.57-3.611-2.313 0-3.46 1.95-3.55 3.611zM274.957 341.397c-.898.988-2.132 1.503-3.593 1.503-1.842 0-3.795-1.232-3.795-3.588 0-2.422 1.953-3.567 3.795-3.567 1.483 0 2.717.471 3.593 1.481v-1.952c0-1.457-1.167-2.286-2.739-2.286-1.303 0-2.36.471-3.325 1.503l-.785-1.167c1.167-1.211 2.561-1.794 4.334-1.794 2.29 0 4.199 1.03 4.199 3.655v7.447h-1.684v-1.235zm0-3.095c-.651-.897-1.796-1.344-2.986-1.344-1.573 0-2.674.986-2.674 2.376 0 1.369 1.101 2.356 2.674 2.356 1.19 0 2.335-.45 2.986-1.346v-2.042zM283.901 331.53c1.977 0 3.146.807 3.976 1.883l-1.123 1.032c-.718-.986-1.64-1.414-2.763-1.414-2.313 0-3.751 1.774-3.751 4.173 0 2.4 1.438 4.193 3.751 4.193 1.123 0 2.045-.447 2.763-1.411l1.123 1.03c-.83 1.077-1.999 1.884-3.976 1.884-3.233 0-5.413-2.467-5.413-5.696 0-3.208 2.18-5.674 5.413-5.674zM296.686 335.499c0-1.906-.987-2.467-2.447-2.467-1.304 0-2.56.807-3.213 1.682v7.918h-1.684v-14.96h1.684v5.698c.764-.899 2.248-1.839 3.886-1.839 2.27 0 3.458 1.097 3.458 3.453v7.648h-1.684v-7.133zM305.565 331.53c3.279 0 5.21 2.557 5.21 5.808v.427h-8.782c.135 2.04 1.573 3.746 3.908 3.746 1.236 0 2.493-.495 3.347-1.368l.808 1.097c-1.077 1.078-2.538 1.66-4.312 1.66-3.211 0-5.525-2.31-5.525-5.696 0-3.141 2.246-5.674 5.346-5.674zm-3.572 5.001h7.119c-.021-1.615-1.099-3.611-3.569-3.611-2.314 0-3.46 1.95-3.55 3.611zM312.6 331.798h1.684v1.749c.876-1.145 2.135-1.974 3.618-1.974v1.728a2.913 2.913 0 00-.675-.068c-1.033 0-2.447.853-2.943 1.728v7.67H312.6v-10.833zM319.05 339.986c.719.829 2.089 1.547 3.572 1.547 1.662 0 2.56-.74 2.56-1.796 0-1.187-1.326-1.568-2.785-1.928-1.842-.426-3.93-.919-3.93-3.161 0-1.682 1.459-3.118 4.041-3.118 1.842 0 3.146.694 4.022 1.569l-.786 1.167c-.652-.785-1.842-1.368-3.236-1.368-1.481 0-2.403.672-2.403 1.636 0 1.054 1.237 1.392 2.65 1.728 1.888.426 4.066.964 4.066 3.364 0 1.817-1.46 3.274-4.267 3.274-1.774 0-3.279-.538-4.38-1.703l.876-1.211zM120.512 363.838c-.898.988-2.133 1.503-3.593 1.503-1.842 0-3.796-1.233-3.796-3.589 0-2.421 1.954-3.566 3.796-3.566 1.482 0 2.717.471 3.593 1.481v-1.952c0-1.458-1.168-2.287-2.74-2.287-1.302 0-2.358.471-3.324 1.503l-.785-1.167c1.167-1.211 2.56-1.793 4.334-1.793 2.29 0 4.199 1.03 4.199 3.654v7.447h-1.684v-1.234zm0-3.096c-.651-.896-1.797-1.344-2.987-1.344-1.572 0-2.673.986-2.673 2.376 0 1.37 1.101 2.356 2.673 2.356 1.19 0 2.336-.449 2.987-1.346v-2.042zM131.995 357.985c0-1.907-.966-2.513-2.426-2.513-1.325 0-2.583.807-3.212 1.682v7.918h-1.684v-10.833h1.684v1.571c.764-.899 2.247-1.839 3.863-1.839 2.269 0 3.459 1.143 3.459 3.497v7.604h-1.684v-7.087zM144.017 363.457c-.808 1.099-2.133 1.884-3.661 1.884-2.83 0-4.829-2.153-4.829-5.674 0-3.453 1.977-5.696 4.829-5.696 1.46 0 2.785.718 3.661 1.905v-5.764h1.685v14.961h-1.685v-1.616zm0-6.235c-.606-.942-1.909-1.75-3.256-1.75-2.179 0-3.482 1.796-3.482 4.195 0 2.4 1.303 4.171 3.482 4.171 1.347 0 2.65-.761 3.256-1.704v-4.912zM153.01 362.426c.719.829 2.089 1.547 3.571 1.547 1.662 0 2.56-.74 2.56-1.795 0-1.187-1.325-1.569-2.785-1.929-1.842-.425-3.93-.918-3.93-3.161 0-1.682 1.459-3.117 4.042-3.117 1.842 0 3.145.694 4.021 1.568l-.786 1.167c-.651-.785-1.842-1.367-3.235-1.367-1.482 0-2.403.672-2.403 1.636 0 1.054 1.236 1.391 2.65 1.727 1.888.426 4.066.965 4.066 3.364 0 1.818-1.46 3.275-4.268 3.275-1.774 0-3.279-.539-4.379-1.704l.876-1.211zM162.965 362.807v-7.088h-1.797v-1.479h1.797v-2.961h1.684v2.961h2.201v1.479h-2.201v6.73c0 .807.359 1.389 1.1 1.389.472 0 .921-.201 1.146-.447l.493 1.255c-.426.403-1.032.695-2.02.695-1.595 0-2.403-.918-2.403-2.534zM175.657 363.549c-.831.94-2.246 1.793-3.863 1.793-2.269 0-3.459-1.099-3.459-3.453v-7.649h1.684v7.132c0 1.906.967 2.467 2.426 2.467 1.325 0 2.583-.762 3.212-1.636v-7.963h1.685v10.834h-1.685v-1.525zM187.679 363.457c-.808 1.099-2.133 1.884-3.661 1.884-2.83 0-4.829-2.153-4.829-5.674 0-3.453 1.977-5.696 4.829-5.696 1.46 0 2.785.718 3.661 1.905v-5.764h1.684v14.961h-1.684v-1.616zm0-6.235c-.606-.942-1.909-1.75-3.256-1.75-2.179 0-3.482 1.796-3.482 4.195 0 2.4 1.303 4.171 3.482 4.171 1.347 0 2.65-.761 3.256-1.704v-4.912zM196.556 353.971c3.279 0 5.211 2.556 5.211 5.807v.427h-8.781c.134 2.04 1.572 3.746 3.907 3.746 1.236 0 2.492-.495 3.347-1.368l.808 1.098c-1.077 1.077-2.538 1.66-4.312 1.66-3.212 0-5.525-2.31-5.525-5.696 0-3.141 2.247-5.674 5.345-5.674zm-3.57 5h7.118c-.022-1.614-1.099-3.611-3.57-3.611-2.313 0-3.459 1.951-3.548 3.611zM210.914 357.985c0-1.907-.965-2.513-2.425-2.513-1.326 0-2.584.807-3.213 1.682v7.918h-1.684v-10.833h1.684v1.571c.765-.899 2.248-1.839 3.864-1.839 2.268 0 3.458 1.143 3.458 3.497v7.604h-1.684v-7.087zM215.413 362.807v-7.088h-1.798v-1.479h1.798v-2.961h1.684v2.961h2.2v1.479h-2.2v6.73c0 .807.359 1.389 1.099 1.389.472 0 .922-.201 1.147-.447l.494 1.255c-.426.403-1.034.695-2.021.695-1.595 0-2.403-.918-2.403-2.534zM220.716 362.426c.719.829 2.089 1.547 3.57 1.547 1.662 0 2.56-.74 2.56-1.795 0-1.187-1.324-1.569-2.785-1.929-1.841-.425-3.93-.918-3.93-3.161 0-1.682 1.459-3.117 4.043-3.117 1.842 0 3.144.694 4.02 1.568l-.786 1.167c-.651-.785-1.842-1.367-3.234-1.367-1.483 0-2.403.672-2.403 1.636 0 1.054 1.235 1.391 2.65 1.727 1.888.426 4.066.965 4.066 3.364 0 1.818-1.46 3.275-4.269 3.275-1.774 0-3.279-.539-4.378-1.704l.876-1.211zM242.015 363.838c-.897.988-2.134 1.503-3.593 1.503-1.842 0-3.797-1.233-3.797-3.589 0-2.421 1.955-3.566 3.797-3.566 1.481 0 2.718.471 3.593 1.481v-1.952c0-1.458-1.168-2.287-2.741-2.287-1.302 0-2.357.471-3.323 1.503l-.786-1.167c1.169-1.211 2.56-1.793 4.334-1.793 2.292 0 4.201 1.03 4.201 3.654v7.447h-1.685v-1.234zm0-3.096c-.651-.896-1.797-1.344-2.988-1.344-1.571 0-2.672.986-2.672 2.376 0 1.37 1.101 2.356 2.672 2.356 1.191 0 2.337-.449 2.988-1.346v-2.042zM246.176 350.112h1.685v14.961h-1.685v-14.961zM250.04 351.279c0-.629.518-1.122 1.123-1.122.629 0 1.147.493 1.147 1.122a1.15 1.15 0 01-1.147 1.143c-.605 0-1.123-.515-1.123-1.143zm.293 2.96h1.684v10.833h-1.684v-10.833zM257.972 360.206l-1.798 1.771v3.096h-1.684v-14.961h1.684v9.891l5.706-5.763h2.134l-4.808 4.91 4.83 5.923h-2.156l-3.908-4.867z" fill="#004C9B"/><path d="M269.341 353.971c3.279 0 5.21 2.556 5.21 5.807v.427h-8.781c.135 2.04 1.572 3.746 3.908 3.746 1.236 0 2.492-.495 3.346-1.368l.808 1.098c-1.077 1.077-2.538 1.66-4.312 1.66-3.211 0-5.524-2.31-5.524-5.696 0-3.141 2.245-5.674 5.345-5.674zm-3.571 5h7.119c-.022-1.614-1.099-3.611-3.57-3.611-2.313 0-3.46 1.951-3.549 3.611zM277.119 362.83c.674 0 1.236.561 1.236 1.233 0 .674-.562 1.234-1.236 1.234-.673 0-1.235-.56-1.235-1.234 0-.672.562-1.233 1.235-1.233z" fill="#004C9B"/></g></g><defs><clipPath id="clip0"><rect width="396" height="400" rx="24" fill="#fff"/></clipPath><clipPath id="clip1"><path fill="#fff" transform="translate(74.42 43.427)" d="M0 0h234.06v227.639H0z"/></clipPath><clipPath id="clip2"><path fill="#fff" transform="translate(65.55 281.602)" d="M0 0h261.27v83.74H0z"/></clipPath></defs></svg>